<svg width="25" height="24" viewBox="0 0 25 24" fill="none" xmlns="http://www.w3.org/2000/svg">
<path d="M12.9277 22C18.4507 22 22.9277 17.523 22.9277 12C22.9277 6.477 18.4507 2 12.9277 2C7.40473 2 2.92773 6.477 2.92773 12C2.92773 17.523 7.40473 22 12.9277 22Z" stroke="#1AC7C7" stroke-width="1.5" stroke-linecap="round" stroke-linejoin="round"/>
<path d="M14.4276 9.17C13.9752 9.01059 13.4912 8.96199 13.0161 9.02828C12.541 9.09456 12.0888 9.27379 11.6973 9.55094C11.3058 9.82809 10.9865 10.1951 10.7661 10.6211C10.5457 11.0472 10.4307 11.5198 10.4307 11.9995C10.4307 12.4792 10.5457 12.9518 10.7661 13.3779C10.9865 13.8039 11.3058 14.1709 11.6973 14.4481C12.0888 14.7252 12.541 14.9044 13.0161 14.9707C13.4912 15.037 13.9752 14.9884 14.4276 14.829" stroke="#1AC7C7" stroke-width="1.5" stroke-linecap="round" stroke-linejoin="round"/>
</svg>
