<svg width="134" height="134" viewBox="0 0 134 134" fill="none" xmlns="http://www.w3.org/2000/svg">
<g clip-path="url(#clip0_1_482)">
<circle cx="66.9275" cy="66.6403" r="63.2902" stroke="url(#paint0_linear_1_482)" stroke-width="6.42214"/>
<mask id="mask0_1_482" style="mask-type:alpha" maskUnits="userSpaceOnUse" x="52" y="15" width="67" height="104">
<path d="M68.3854 118.082C68.3854 117.959 68.3554 117.826 68.3581 117.716C68.3745 103.859 68.3926 89.9999 68.4126 76.1393C68.4218 75.4019 68.26 74.6715 67.9386 73.9988C67.2113 72.4881 65.5469 71.9197 63.9724 72.6827C63.4846 72.9494 63.0193 73.2507 62.5804 73.584C62.2371 73.8195 61.9184 74.0961 61.5806 74.3239C60.047 75.4121 58.4153 75.4736 56.7345 74.6773C55.2117 73.9527 54.1848 72.7569 53.3893 71.3743C51.1692 67.5183 51.7903 62.7635 54.9421 59.6807C55.4016 59.232 55.9197 58.8398 56.4839 58.5131C58.2082 57.5197 60.0252 57.6272 61.6324 58.7692C62.1118 59.1072 62.5558 59.4887 63.038 59.819C63.6694 60.2831 64.4223 60.5785 65.2173 60.6742C65.6675 60.7353 66.127 60.6766 66.5435 60.5046C66.9601 60.3326 67.3169 60.0543 67.5736 59.7012C68.0732 59.0378 68.3571 58.2524 68.3908 57.4403C68.4235 57.023 68.4153 56.6005 68.4153 56.1806C68.4153 42.6699 68.4153 29.1593 68.4153 15.6486V15.2338C69.189 15.2338 69.9272 15.2338 70.6654 15.2338C73.2451 15.2871 75.8193 15.4829 78.3746 15.8202C78.6034 15.8509 78.6715 15.9533 78.7314 16.1351C82.6214 27.5803 86.515 39.023 90.4123 50.4631C90.4464 50.5896 90.5128 50.7065 90.6057 50.8036C90.8018 49.9356 91.0061 49.0676 91.1941 48.1971C91.7879 45.4139 92.3382 42.6204 93.3488 39.9319C94.0217 38.1396 94.8688 36.4318 96.1818 34.9621C97.2248 33.7554 98.6191 32.8604 100.194 32.3863C101.208 32.0867 102.202 32.2455 103.191 32.5041C105.076 33.0008 106.574 34.0736 107.822 35.4511C109.227 37.0765 110.476 38.8159 111.554 40.6489C117.091 49.5681 119.628 59.8535 118.83 70.153C117.95 81.3319 113.635 91.2024 105.978 99.7877C105.692 100.11 105.406 100.433 105.1 100.74C104.665 101.175 104.441 101.183 103.975 100.779C103.289 100.182 102.613 99.5649 101.93 98.9709C100.611 97.8366 99.2846 96.7151 97.9607 95.5885C97.8709 95.5143 97.7862 95.4348 97.7073 95.3504C97.4349 95.0508 97.4159 94.8613 97.6556 94.5259C97.7782 94.3569 97.928 94.1982 98.0506 94.0369C102.303 88.8827 105.482 83.2215 107.223 76.8818C108.342 72.7925 108.764 68.5621 108.473 64.3484C108.092 58.6284 106.522 53.1797 104.15 47.918C103.877 47.3188 103.605 46.7223 103.275 46.0386C103.213 46.2281 103.172 46.3356 103.139 46.4457C100.862 53.7311 98.5818 61.0156 96.299 68.2992C96.2036 68.6039 96.0919 68.9009 95.9666 69.1954C95.9032 69.3666 95.7816 69.5134 95.6207 69.6134C95.4597 69.7133 95.2683 69.7608 95.0759 69.7484C94.3785 69.7356 93.6839 69.6972 92.9865 69.6946C90.8399 69.6946 88.6961 69.6946 86.5495 69.6946C86.3758 69.6968 86.2021 69.69 86.0292 69.6742C85.8425 69.6605 85.6653 69.5909 85.5236 69.4757C85.382 69.3606 85.2833 69.2058 85.242 69.034C84.9859 68.2121 84.7407 67.3851 84.4738 66.5658C82.4761 60.489 80.4785 54.4122 78.4808 48.3353C78.3727 47.9613 78.2362 47.5951 78.0722 47.2395V117.532C77.1188 117.637 76.198 117.754 75.2718 117.831C74.2612 117.916 73.2506 117.962 72.2399 118.028C72.1936 118.04 72.1495 118.058 72.1092 118.082H68.3854Z" fill="url(#paint1_linear_1_482)"/>
</mask>
<g mask="url(#mask0_1_482)">
<path d="M68.3854 118.082C68.3854 117.959 68.3554 117.826 68.3581 117.716C68.3745 103.859 68.3926 89.9999 68.4126 76.1393C68.4218 75.4019 68.26 74.6715 67.9386 73.9988C67.2113 72.4881 65.5469 71.9197 63.9724 72.6827C63.4846 72.9494 63.0193 73.2507 62.5804 73.584C62.2371 73.8195 61.9184 74.0961 61.5806 74.324C60.047 75.4121 58.4153 75.4736 56.7345 74.6773C55.2117 73.9527 54.1848 72.7569 53.3893 71.3743C51.1692 67.5183 51.7903 62.7635 54.9421 59.6807C55.4016 59.2321 55.9197 58.8398 56.4839 58.5132C58.2082 57.5197 60.0252 57.6272 61.6324 58.7692C62.1118 59.1072 62.5558 59.4887 63.038 59.819C63.6694 60.2831 64.4222 60.5785 65.2173 60.6742C65.6675 60.7353 66.127 60.6766 66.5435 60.5046C66.9601 60.3326 67.3169 60.0543 67.5736 59.7012C68.0732 59.0378 68.3571 58.2524 68.3908 57.4403C68.4235 57.023 68.4153 56.6005 68.4153 56.1806C68.4153 42.6699 68.4153 29.1593 68.4153 15.6486V15.2338C69.189 15.2338 69.9272 15.2338 70.6654 15.2338C73.2451 15.2871 75.8193 15.4829 78.3746 15.8202C78.6034 15.8509 78.6715 15.9533 78.7314 16.1351C82.6214 27.5803 86.515 39.023 90.4123 50.4631C90.4464 50.5896 90.5128 50.7065 90.6057 50.8036C90.8018 49.9356 91.0061 49.0676 91.1941 48.1971C91.7879 45.4139 92.3382 42.6204 93.3488 39.9319C94.0217 38.1396 94.8688 36.4318 96.1818 34.9621C97.2248 33.7554 98.6191 32.8604 100.194 32.3863C101.208 32.0867 102.202 32.2455 103.191 32.5041C105.076 33.0008 106.574 34.0736 107.822 35.4511C109.227 37.0765 110.476 38.8159 111.554 40.6489C117.091 49.5681 119.628 59.8535 118.83 70.153C117.95 81.3319 113.635 91.2025 105.978 99.7877C105.692 100.11 105.406 100.433 105.1 100.74C104.665 101.175 104.441 101.183 103.975 100.779C103.289 100.182 102.613 99.5649 101.93 98.9709C100.611 97.8366 99.2846 96.7151 97.9607 95.5885C97.8709 95.5143 97.7862 95.4348 97.7073 95.3504C97.4349 95.0508 97.4159 94.8613 97.6556 94.5259C97.7782 94.3569 97.928 94.1982 98.0506 94.0369C102.303 88.8827 105.482 83.2215 107.223 76.8818C108.342 72.7925 108.764 68.5621 108.473 64.3484C108.091 58.6284 106.522 53.1797 104.15 47.918C103.877 47.3188 103.605 46.7223 103.275 46.0386C103.213 46.2281 103.172 46.3356 103.139 46.4457C100.862 53.7311 98.5818 61.0156 96.299 68.2992C96.2036 68.6039 96.0919 68.9009 95.9666 69.1954C95.9032 69.3666 95.7816 69.5134 95.6207 69.6134C95.4597 69.7133 95.2683 69.7608 95.0759 69.7484C94.3785 69.7356 93.6839 69.6972 92.9865 69.6946C90.8399 69.6946 88.6961 69.6946 86.5495 69.6946C86.3758 69.6968 86.2021 69.69 86.0292 69.6742C85.8425 69.6605 85.6653 69.5909 85.5236 69.4757C85.382 69.3606 85.2833 69.2058 85.242 69.0341C84.9859 68.2121 84.7407 67.3851 84.4738 66.5658C82.4761 60.489 80.4785 54.4122 78.4808 48.3354C78.3727 47.9613 78.2362 47.5951 78.0722 47.2395V117.532C77.1188 117.637 76.198 117.754 75.2718 117.831C74.2612 117.916 73.2506 117.962 72.2399 118.028C72.1936 118.04 72.1495 118.058 72.1092 118.082H68.3854Z" fill="url(#paint2_linear_1_482)"/>
<path d="M67.9386 73.996C68.26 74.6687 68.4218 75.3992 68.4126 76.1365H78.0394V56.1778H68.4153C68.4153 56.5977 68.4235 57.0202 68.3908 57.4376C68.3571 58.2497 68.0732 59.0351 67.5736 59.6984C67.3169 60.0515 66.9601 60.3298 66.5435 60.5018C66.127 60.6738 65.6675 60.7326 65.2173 60.6714C64.4223 60.5757 63.6694 60.2803 63.038 59.8162C62.5559 59.4859 62.1118 59.1044 61.6324 58.7664C60.0252 57.6245 58.2082 57.5169 56.4839 58.5104C55.9197 58.837 55.4016 59.2293 54.9421 59.678C51.7903 62.7607 51.1692 67.5155 53.3893 71.3715C54.1848 72.7542 55.2117 73.9499 56.7345 74.6745C58.4153 75.4708 60.047 75.4094 61.5806 74.3212C61.9184 74.0933 62.2371 73.8168 62.5804 73.5812C63.0193 73.2479 63.4846 72.9466 63.9724 72.6799C65.5469 71.9169 67.2113 72.4853 67.9386 73.996Z" fill="url(#paint3_linear_1_482)"/>
<path d="M90.6016 50.7949C91.7708 42.3626 99.4745 38.936 103.265 46.0217L97.6322 70.8578L85.6216 69.5468C86.6136 62.7797 89.2426 55.9126 90.6016 50.7949Z" fill="url(#paint4_linear_1_482)"/>
<path d="M66.9946 10.4966L78.0699 47.2423L78.0812 59.2065L67.2084 59.1642L66.9946 10.4966Z" fill="url(#paint5_linear_1_482)"/>
<path d="M104.681 101.115C118.286 76.1155 106.842 52.9659 103.264 46.0218L100.89 67.0669L91.1472 90.4503V101.717C93.1667 104.008 98.7008 107.095 104.681 101.115Z" fill="url(#paint6_linear_1_482)"/>
</g>
<mask id="mask1_1_482" style="mask-type:alpha" maskUnits="userSpaceOnUse" x="15" y="15" width="53" height="104">
<path d="M15.164 64.6476C15.2048 64.2482 15.2539 63.8487 15.2811 63.4467C15.9757 53.3611 19.4598 44.2126 25.8614 36.0985C33.4888 26.4277 43.5271 20.0138 55.8862 16.8337C59.3107 15.9555 62.8279 15.4351 66.3739 15.282C66.5891 15.282 66.807 15.282 67.0685 15.282V53.7682C67.0685 54.9332 67.0685 56.1008 67.0331 57.2658C67.0061 57.705 66.904 58.1373 66.7307 58.546C66.3521 59.4934 65.5866 59.8135 64.5515 59.5113C63.8098 59.2636 63.1388 58.8588 62.5901 58.3284C61.9062 57.6914 61.0633 57.2258 60.1385 56.9739C58.5313 56.554 57.0276 56.8561 55.6247 57.6294C53.7805 58.6536 52.5792 60.1898 51.7238 61.9975C50.8981 63.6449 50.5477 65.4674 50.7077 67.2823C51.0237 70.3241 52.2359 72.9819 54.832 74.9457C55.581 75.5475 56.4797 75.9615 57.4445 76.1495C58.4094 76.3375 59.4091 76.2934 60.351 76.0211C60.9853 75.8328 61.5714 75.5234 62.0726 75.1122C62.5784 74.7095 63.1067 74.3326 63.6553 73.983C64.0544 73.7568 64.4854 73.5844 64.9356 73.4709C65.2094 73.39 65.5043 73.3988 65.7721 73.4961C66.0398 73.5933 66.2645 73.7731 66.4093 74.006C66.7629 74.5003 66.9758 75.0716 67.0277 75.6652C67.0467 75.849 67.0549 76.0336 67.0522 76.2183V118.007C66.8288 118.007 66.6163 118.007 66.4039 118.007C62.4031 117.823 58.4394 117.195 54.595 116.138C46.2959 113.847 38.6893 109.747 32.3938 104.172C26.0983 98.5969 21.2917 91.7037 18.3648 84.0533C17.005 80.5248 16.0792 76.8617 15.6053 73.1355C15.4309 71.7349 15.3329 70.319 15.2157 68.9184C15.2016 68.8443 15.1806 68.7715 15.1531 68.7008V68.0863C15.1871 68.0173 15.2101 67.944 15.2212 67.8686C15.2212 67.0937 15.2212 66.3179 15.2212 65.5412C15.2113 65.4701 15.1921 65.4004 15.164 65.3338V64.6476ZM56.1804 105.945C56.1804 105.85 56.1804 105.82 56.1804 105.789C56.1804 98.5429 56.1804 91.2976 56.1804 84.0533C56.1622 83.8977 56.0871 83.7529 55.9679 83.6436C51.5331 79.4615 47.0947 75.2837 42.6526 71.1102C42.5833 71.0406 42.4986 70.9862 42.4045 70.9508C42.3103 70.9154 42.209 70.8999 42.1078 70.9053C36.6978 70.9053 31.2869 70.9053 25.875 70.9053H25.5482C25.5482 70.9719 25.5482 71.0129 25.5482 71.0538C25.9685 73.2239 26.5335 75.3669 27.2398 77.4703C29.7617 85.1292 34.533 91.9632 41.0046 97.1858C44.8553 100.275 49.1293 102.864 53.7124 104.885C54.5269 105.238 55.3387 105.579 56.1804 105.945ZM25.5155 61.3932C25.6435 61.3932 25.6844 61.4086 25.7279 61.4086C31.2269 61.4086 36.7259 61.4086 42.2249 61.4086C42.3805 61.3951 42.526 61.3308 42.6363 61.2268C47.0983 57.0396 51.5558 52.849 56.0088 48.655C56.122 48.5404 56.1878 48.3914 56.194 48.2351C56.194 41.0402 56.194 33.8453 56.194 26.6505V26.3944L55.9379 26.4943C52.3329 27.9554 48.8834 29.7343 45.6355 31.8072C40.5605 35.0718 36.2238 39.0354 32.8133 43.8644C29.8606 48.0782 27.6956 52.7353 26.4117 57.6345C26.0766 58.8686 25.8097 60.1181 25.5155 61.3932Z" fill="url(#paint7_linear_1_482)"/>
</mask>
<g mask="url(#mask1_1_482)">
<path d="M15.164 64.6476C15.2048 64.2482 15.2539 63.8487 15.2811 63.4467C15.9757 53.3611 19.4598 44.2126 25.8614 36.0985C33.4888 26.4277 43.5271 20.0138 55.8862 16.8337C59.3107 15.9555 62.8279 15.4351 66.3739 15.282C66.5891 15.282 66.807 15.282 67.0685 15.282V53.7682C67.0685 54.9332 67.0685 56.1008 67.0331 57.2658C67.0061 57.705 66.904 58.1373 66.7307 58.546C66.3521 59.4934 65.5866 59.8135 64.5515 59.5113C63.8098 59.2636 63.1388 58.8588 62.5901 58.3284C61.9062 57.6914 61.0633 57.2258 60.1385 56.9739C58.5313 56.554 57.0276 56.8561 55.6247 57.6294C53.7805 58.6536 52.5792 60.1898 51.7238 61.9975C50.8981 63.6449 50.5477 65.4674 50.7077 67.2823C51.0237 70.3241 52.2359 72.9819 54.832 74.9457C55.581 75.5475 56.4797 75.9615 57.4445 76.1495C58.4094 76.3375 59.4091 76.2934 60.3509 76.0211C60.9853 75.8328 61.5714 75.5234 62.0726 75.1122C62.5784 74.7095 63.1067 74.3326 63.6553 73.983C64.0544 73.7568 64.4854 73.5844 64.9356 73.4709C65.2094 73.39 65.5043 73.3988 65.7721 73.4961C66.0398 73.5933 66.2645 73.7731 66.4093 74.006C66.7629 74.5003 66.9758 75.0716 67.0277 75.6652C67.0467 75.849 67.0549 76.0336 67.0522 76.2183V118.007C66.8288 118.007 66.6163 118.007 66.4038 118.007C62.4031 117.823 58.4394 117.195 54.595 116.138C46.2959 113.847 38.6893 109.747 32.3938 104.172C26.0983 98.5969 21.2917 91.7037 18.3648 84.0533C17.005 80.5248 16.0792 76.8617 15.6053 73.1355C15.4309 71.7349 15.3329 70.319 15.2157 68.9184C15.2016 68.8443 15.1806 68.7715 15.1531 68.7008V68.0863C15.1871 68.0173 15.2101 67.944 15.2212 67.8686C15.2212 67.0937 15.2212 66.3179 15.2212 65.5412C15.2113 65.4701 15.1921 65.4004 15.164 65.3338V64.6476ZM56.1804 105.945C56.1804 105.85 56.1804 105.82 56.1804 105.789C56.1804 98.5429 56.1804 91.2976 56.1804 84.0533C56.1622 83.8977 56.0871 83.7529 55.9679 83.6436C51.5331 79.4615 47.0947 75.2837 42.6526 71.1102C42.5833 71.0406 42.4986 70.9862 42.4045 70.9508C42.3103 70.9154 42.209 70.8999 42.1078 70.9053C36.6978 70.9053 31.2869 70.9053 25.875 70.9053H25.5481C25.5481 70.9719 25.5481 71.0129 25.5481 71.0538C25.9685 73.2239 26.5335 75.3669 27.2398 77.4703C29.7617 85.1292 34.533 91.9632 41.0046 97.1858C44.8553 100.275 49.1293 102.864 53.7124 104.885C54.5269 105.238 55.3386 105.579 56.1804 105.945ZM25.5155 61.3932C25.6435 61.3932 25.6844 61.4086 25.7279 61.4086C31.2269 61.4086 36.7259 61.4086 42.2249 61.4086C42.3805 61.3951 42.526 61.3308 42.6363 61.2268C47.0983 57.0396 51.5558 52.849 56.0088 48.655C56.122 48.5404 56.1878 48.3914 56.194 48.2351C56.194 41.0402 56.194 33.8453 56.194 26.6505V26.3944L55.9379 26.4943C52.3329 27.9554 48.8834 29.7343 45.6355 31.8072C40.5605 35.0718 36.2238 39.0354 32.8133 43.8644C29.8606 48.0782 27.6956 52.7353 26.4117 57.6345C26.0766 58.8686 25.8097 60.1181 25.5155 61.3932Z" fill="url(#paint8_linear_1_482)"/>
<path d="M17.5647 82.0487C15.1551 72.1286 23.009 70.8531 26.1031 70.9239L39.5662 92.3942L27.8746 106.495C21.8516 99.2675 21.5426 98.4253 17.5647 82.0487Z" fill="url(#paint9_linear_1_482)"/>
<path d="M17.9436 50.2357C15.534 60.1558 23.3879 61.4313 26.482 61.3604L39.9451 39.8902L28.2535 25.7892C22.2305 33.0169 21.9215 33.8591 17.9436 50.2357Z" fill="url(#paint10_linear_1_482)"/>
<path d="M67.1084 38.066L52.8259 51.6761L54.6063 24.6536H67.1084V38.066Z" fill="url(#paint11_linear_1_482)"/>
<path d="M67.1084 94.2336L52.8259 80.6234L54.6063 107.646L67.1084 107.646L67.1084 94.2336Z" fill="url(#paint12_linear_1_482)"/>
</g>
</g>
<defs>
<linearGradient id="paint0_linear_1_482" x1="6.84839" y1="67.9754" x2="120.331" y2="67.9754" gradientUnits="userSpaceOnUse">
<stop stop-color="#19A2A2"/>
<stop offset="1" stop-color="#005858"/>
</linearGradient>
<linearGradient id="paint1_linear_1_482" x1="119.468" y1="67.7116" x2="51.6344" y2="67.7116" gradientUnits="userSpaceOnUse">
<stop stop-color="#FBC108"/>
<stop offset="1" stop-color="#0EFFC5"/>
</linearGradient>
<linearGradient id="paint2_linear_1_482" x1="-6.16134" y1="67.8007" x2="140.216" y2="67.8007" gradientUnits="userSpaceOnUse">
<stop stop-color="#41C8C8"/>
<stop offset="1" stop-color="#008181"/>
</linearGradient>
<linearGradient id="paint3_linear_1_482" x1="67.4566" y1="67.0003" x2="52.0691" y2="67.0003" gradientUnits="userSpaceOnUse">
<stop stop-color="#0CB0AF" stop-opacity="0"/>
<stop offset="1" stop-color="#004736"/>
</linearGradient>
<linearGradient id="paint4_linear_1_482" x1="99.0848" y1="40.1403" x2="88.0662" y2="60.9729" gradientUnits="userSpaceOnUse">
<stop stop-color="#067271"/>
<stop offset="1" stop-color="#09A3A2" stop-opacity="0"/>
</linearGradient>
<linearGradient id="paint5_linear_1_482" x1="68.7055" y1="15.693" x2="51.3309" y2="33.0034" gradientUnits="userSpaceOnUse">
<stop stop-color="#006564"/>
<stop offset="1" stop-color="#09A3A2" stop-opacity="0"/>
</linearGradient>
<linearGradient id="paint6_linear_1_482" x1="113.109" y1="57.3251" x2="79.9492" y2="92.6921" gradientUnits="userSpaceOnUse">
<stop stop-color="#006B6A"/>
<stop offset="1" stop-color="#0E9998" stop-opacity="0"/>
</linearGradient>
<linearGradient id="paint7_linear_1_482" x1="67.4522" y1="67.6972" x2="14.8158" y2="67.6972" gradientUnits="userSpaceOnUse">
<stop stop-color="#FBC108"/>
<stop offset="1" stop-color="#0EFFC5"/>
</linearGradient>
<linearGradient id="paint8_linear_1_482" x1="-6.16126" y1="67.7861" x2="139.538" y2="67.7861" gradientUnits="userSpaceOnUse">
<stop stop-color="#41C8C8"/>
<stop offset="1" stop-color="#008181"/>
</linearGradient>
<linearGradient id="paint9_linear_1_482" x1="26.2204" y1="70.9213" x2="34.2164" y2="97.7087" gradientUnits="userSpaceOnUse">
<stop stop-color="#036B6B"/>
<stop offset="1" stop-color="#0FCA96" stop-opacity="0"/>
</linearGradient>
<linearGradient id="paint10_linear_1_482" x1="26.5994" y1="61.3631" x2="34.5953" y2="34.5757" gradientUnits="userSpaceOnUse">
<stop stop-color="#036B6B"/>
<stop offset="1" stop-color="#0FCA96" stop-opacity="0"/>
</linearGradient>
<linearGradient id="paint11_linear_1_482" x1="59.9672" y1="24.6536" x2="59.9672" y2="51.6761" gradientUnits="userSpaceOnUse">
<stop stop-color="#18D4D3" stop-opacity="0"/>
<stop offset="1" stop-color="#075C5B"/>
</linearGradient>
<linearGradient id="paint12_linear_1_482" x1="59.9672" y1="107.646" x2="59.9672" y2="80.6234" gradientUnits="userSpaceOnUse">
<stop stop-color="#1AEFED" stop-opacity="0"/>
<stop offset="1" stop-color="#004B4B"/>
</linearGradient>
<clipPath id="clip0_1_482">
<rect width="133.281" height="133.281" fill="white" transform="translate(0.287109)"/>
</clipPath>
</defs>
</svg>
