<svg width="29" height="28" viewBox="0 0 29 28" fill="none" xmlns="http://www.w3.org/2000/svg">
<g clip-path="url(#clip0_3_1753)">
<path d="M24.3059 19.6665C27.2827 17.01 28.9277 14 28.9277 14C28.9277 14 23.6777 4.375 14.9277 4.375C13.247 4.38079 11.5853 4.73099 10.0452 5.404L11.3927 6.75325C12.5257 6.34052 13.7218 6.12794 14.9277 6.125C18.6377 6.125 21.7159 8.169 23.9717 10.4248C25.0573 11.5162 26.0305 12.714 26.8767 14C26.7752 14.1523 26.6632 14.3203 26.5354 14.504C25.9492 15.344 25.0829 16.464 23.9717 17.5753C23.6829 17.864 23.3819 18.1493 23.0669 18.4258L24.3059 19.6665Z" fill="url(#paint0_linear_3_1753)"/>
<path d="M20.6974 16.058C21.0879 14.9657 21.1602 13.785 20.9059 12.6532C20.6516 11.5215 20.0812 10.4852 19.2609 9.66494C18.4407 8.8447 17.4044 8.27425 16.2726 8.01995C15.1409 7.76566 13.9601 7.83798 12.8679 8.2285L14.3081 9.66875C14.9807 9.57249 15.6664 9.63418 16.3109 9.84894C16.9555 10.0637 17.5412 10.4256 18.0216 10.906C18.502 11.3864 18.8639 11.9721 19.0787 12.6167C19.2934 13.2612 19.3551 13.947 19.2589 14.6195L20.6974 16.058ZM15.5471 18.3313L16.9856 19.7698C15.8933 20.1603 14.7126 20.2326 13.5809 19.9783C12.4491 19.724 11.4128 19.1536 10.5926 18.3333C9.77232 17.5131 9.20187 16.4768 8.94757 15.345C8.69328 14.2132 8.7656 13.0325 9.15612 11.9403L10.5964 13.3805C10.5001 14.053 10.5618 14.7388 10.7766 15.3833C10.9913 16.0279 11.3532 16.6136 11.8336 17.094C12.314 17.5744 12.8997 17.9363 13.5443 18.1511C14.1889 18.3658 14.8746 18.4275 15.5471 18.3313Z" fill="url(#paint1_linear_3_1753)"/>
<path d="M6.79023 9.5725C6.47523 9.8525 6.17248 10.136 5.88373 10.4247C4.79811 11.5162 3.82489 12.714 2.97873 14L3.31998 14.504C3.90623 15.344 4.77248 16.464 5.88373 17.5752C8.13948 19.831 11.2195 21.875 14.9277 21.875C16.1807 21.875 17.3602 21.6422 18.4627 21.245L19.8102 22.596C18.2701 23.269 16.6084 23.6192 14.9277 23.625C6.17773 23.625 0.927734 14 0.927734 14C0.927734 14 2.57098 10.9882 5.54948 8.3335L6.78848 9.57425L6.79023 9.5725ZM24.8082 25.1195L3.80823 4.1195L5.04723 2.8805L26.0472 23.8805L24.8082 25.1195Z" fill="url(#paint2_linear_3_1753)"/>
</g>
<defs>
<linearGradient id="paint0_linear_3_1753" x1="10.0452" y1="12.1907" x2="27.8786" y2="12.1907" gradientUnits="userSpaceOnUse">
<stop stop-color="#6FDFDF"/>
<stop offset="1" stop-color="#00A5A5"/>
</linearGradient>
<linearGradient id="paint1_linear_3_1753" x1="8.79858" y1="14.1353" x2="20.374" y2="14.1353" gradientUnits="userSpaceOnUse">
<stop stop-color="#6FDFDF"/>
<stop offset="1" stop-color="#00A5A5"/>
</linearGradient>
<linearGradient id="paint2_linear_3_1753" x1="0.927734" y1="14.2471" x2="24.6517" y2="14.2471" gradientUnits="userSpaceOnUse">
<stop stop-color="#6FDFDF"/>
<stop offset="1" stop-color="#00A5A5"/>
</linearGradient>
<clipPath id="clip0_3_1753">
<rect width="28" height="28" fill="white" transform="translate(0.927734)"/>
</clipPath>
</defs>
</svg>
