<svg width="31" height="30" viewBox="0 0 31 30" fill="none" xmlns="http://www.w3.org/2000/svg">
<mask id="path-1-inside-1_214_550" fill="white">
<path d="M30.4785 14.1461V2.65077C30.478 2.53858 30.4444 2.42904 30.3819 2.33597C30.3193 2.24289 30.2306 2.17045 30.127 2.12779C30.0234 2.08512 29.9095 2.07414 29.7996 2.09623C29.6898 2.11832 29.5889 2.17249 29.5098 2.25191L26.7709 4.99212C25.3695 3.45145 23.6681 2.21416 21.7715 1.35632C19.8748 0.498481 17.823 0.0382403 15.7421 0.00390002C15.7421 0.00390002 15.3175 -0.00487503 15.1327 0.00390002H3.60355C3.49135 0.00420186 3.38176 0.0378194 3.28864 0.1005C3.19552 0.163181 3.12305 0.252109 3.08041 0.356035C3.03777 0.459961 3.02687 0.574216 3.04909 0.684347C3.07131 0.794478 3.12564 0.895536 3.20523 0.974739L5.95526 3.71654C4.39351 5.09497 3.14302 6.79082 2.28709 8.69113C1.43115 10.5914 0.98943 12.6526 0.991339 14.7372C0.991339 14.754 1.00648 26.8954 1.00648 26.8954C1.00693 27.0076 1.04056 27.1172 1.10312 27.2102C1.16568 27.3033 1.25436 27.3758 1.35798 27.4184C1.4616 27.4611 1.57552 27.4721 1.68536 27.45C1.79521 27.4279 1.89606 27.3737 1.9752 27.2943L4.71408 24.5517C6.0981 26.1102 7.79647 27.3571 9.69709 28.2101C11.5977 29.0631 13.6574 29.5027 15.7402 29.5C17.823 29.4973 19.8815 29.0523 21.7799 28.1944C23.6783 27.3364 25.3734 26.0851 26.7534 24.523C27.0387 24.1978 27.1904 23.7764 27.1778 23.3437C27.1653 22.9111 26.9894 22.4992 26.6857 22.1912L23.1804 18.6429C23.0105 18.4727 22.8067 18.3403 22.5822 18.2544C22.3578 18.1685 22.1177 18.131 21.8778 18.1443C21.6379 18.1577 21.4035 18.2215 21.1899 18.3318C20.9763 18.442 20.7883 18.5961 20.6383 18.7841C20.2651 19.2402 19.8311 19.6428 19.3485 19.9807C18.5192 20.6292 17.8261 21.0257 15.2657 21.0792C14.3707 21.0058 13.5016 20.7424 12.7161 20.3065C11.9307 19.8706 11.247 19.2722 10.7105 18.5512L14.0564 15.2007C14.1357 15.1214 14.1898 15.0204 14.2118 14.9105C14.2339 14.8005 14.2229 14.6864 14.1803 14.5826C14.1377 14.4789 14.0654 14.3901 13.9724 14.3274C13.8795 14.2648 13.7701 14.2311 13.6581 14.2306C12.1179 14.2365 10.7128 14.2407 9.44299 14.2434C9.522 13.353 9.78864 12.4895 10.2253 11.7098C10.662 10.9302 11.2588 10.2521 11.9763 9.72027L15.3406 13.0755C15.4201 13.1551 15.5215 13.2091 15.6318 13.2308C15.7421 13.2526 15.8564 13.241 15.9601 13.1976C16.0638 13.1541 16.1523 13.0808 16.2143 12.987C16.2764 12.8931 16.3092 12.7829 16.3085 12.6703C16.3037 11.3508 16.2982 9.90853 16.2958 8.479C17.1771 8.5614 18.0314 8.82813 18.8033 9.26195C19.5752 9.69577 20.2476 10.287 20.7769 10.9974L17.431 14.3479C17.3517 14.4272 17.2976 14.5281 17.2755 14.6381C17.2535 14.7481 17.2644 14.8622 17.307 14.966C17.3496 15.0697 17.422 15.1585 17.5149 15.2212C17.6079 15.2838 17.7173 15.3175 17.8293 15.318C24.0328 15.294 28.087 15.2948 29.8818 15.318H29.9256C30.0001 15.3177 30.0738 15.3028 30.1426 15.2741C30.2113 15.2454 30.2737 15.2034 30.3262 15.1505C30.3788 15.0976 30.4204 15.0348 30.4487 14.9658C30.477 14.8969 30.4915 14.823 30.4912 14.7484C30.492 14.5402 30.4873 14.3296 30.4785 14.1461ZM9.57443 18.0821C9.48265 18.1731 9.4247 18.2929 9.41021 18.4214C9.39572 18.55 9.42556 18.6796 9.49477 18.7889C10.1208 19.7655 10.9647 20.5831 11.9601 21.1774C12.9554 21.7717 14.075 22.1264 15.2306 22.2135C18.1934 22.1553 19.0601 21.6464 20.0217 20.8941C20.5806 20.502 21.0834 20.0352 21.5162 19.5068C21.5694 19.4406 21.6358 19.3864 21.7113 19.3476C21.7868 19.3088 21.8696 19.2864 21.9544 19.2819C22.0319 19.277 22.1095 19.289 22.1819 19.3173C22.2543 19.3455 22.3196 19.3893 22.3734 19.4454L25.8787 22.9937C25.9805 23.0964 26.0396 23.2339 26.0442 23.3785C26.0488 23.5232 25.9984 23.6642 25.9033 23.7731C24.5975 25.251 22.9864 26.4269 21.1817 27.2194C19.377 28.0119 17.4217 28.402 15.4515 28.3627C13.4812 28.3234 11.5431 27.8556 9.7713 26.9918C7.99952 26.1279 6.43648 24.8887 5.19048 23.3599C5.14031 23.2983 5.07781 23.248 5.007 23.2121C4.93619 23.1762 4.85866 23.1557 4.7794 23.1517H4.75073C4.67664 23.1519 4.60333 23.1667 4.53498 23.1953C4.46663 23.2239 4.40458 23.2657 4.3524 23.3184L2.14011 25.5249V15.3762C2.14035 15.3738 2.14035 15.3714 2.14011 15.369C3.98355 15.3858 7.38604 15.3874 12.2838 15.369L9.57443 18.0821ZM15.1661 11.3014L12.4416 8.5843C12.3505 8.49329 12.2312 8.43587 12.1034 8.42138C11.9755 8.40689 11.8465 8.4362 11.7373 8.50453C10.7768 9.11644 9.96871 9.94027 9.37497 10.913C8.78123 11.8857 8.41755 12.9815 8.31175 14.1166C8.2998 14.1557 8.29342 14.2027 8.28466 14.245C5.47966 14.2498 3.4251 14.245 2.1425 14.2338C2.21175 12.2984 2.69474 10.4004 3.55889 8.66784C4.42304 6.93527 5.64824 5.40845 7.15182 4.19039C7.21363 4.14016 7.26418 4.07747 7.30019 4.00639C7.3362 3.9353 7.35687 3.85743 7.36086 3.77782C7.36484 3.69822 7.35204 3.61866 7.32331 3.54433C7.29457 3.47 7.25053 3.40256 7.19405 3.34639L4.97458 1.13827H15.1717C15.1462 3.38149 15.1534 7.61187 15.1661 11.2982V11.3014ZM25.3688 14.1644C23.6841 14.1644 21.6277 14.1687 19.1995 14.1772L21.9082 11.4649C21.9999 11.3739 22.0579 11.2541 22.0724 11.1256C22.0869 10.997 22.057 10.8674 21.9878 10.7581C21.3748 9.79949 20.5514 8.99358 19.5803 8.40177C18.6093 7.80996 17.5161 7.44785 16.3842 7.34303C16.3555 7.33425 16.3205 7.33027 16.2902 7.32309C16.2902 4.91154 16.2902 2.64918 16.3013 1.19731C18.2263 1.27008 20.1136 1.75308 21.8374 2.61407C23.5611 3.47506 25.0817 4.69426 26.2977 6.19031C26.3478 6.25181 26.4103 6.30209 26.4811 6.33792C26.5519 6.37374 26.6294 6.39431 26.7085 6.3983C26.7877 6.40228 26.8669 6.38959 26.9409 6.36105C27.0149 6.33251 27.0821 6.28874 27.1382 6.23259L29.3433 4.02447V14.17C29.343 14.1724 29.343 14.1748 29.3433 14.1772C28.4136 14.1692 27.0864 14.1644 25.3688 14.1644Z"/>
</mask>
<path d="M30.4785 14.1461V2.65077C30.478 2.53858 30.4444 2.42904 30.3819 2.33597C30.3193 2.24289 30.2306 2.17045 30.127 2.12779C30.0234 2.08512 29.9095 2.07414 29.7996 2.09623C29.6898 2.11832 29.5889 2.17249 29.5098 2.25191L26.7709 4.99212C25.3695 3.45145 23.6681 2.21416 21.7715 1.35632C19.8748 0.498481 17.823 0.0382403 15.7421 0.00390002C15.7421 0.00390002 15.3175 -0.00487503 15.1327 0.00390002H3.60355C3.49135 0.00420186 3.38176 0.0378194 3.28864 0.1005C3.19552 0.163181 3.12305 0.252109 3.08041 0.356035C3.03777 0.459961 3.02687 0.574216 3.04909 0.684347C3.07131 0.794478 3.12564 0.895536 3.20523 0.974739L5.95526 3.71654C4.39351 5.09497 3.14302 6.79082 2.28709 8.69113C1.43115 10.5914 0.98943 12.6526 0.991339 14.7372C0.991339 14.754 1.00648 26.8954 1.00648 26.8954C1.00693 27.0076 1.04056 27.1172 1.10312 27.2102C1.16568 27.3033 1.25436 27.3758 1.35798 27.4184C1.4616 27.4611 1.57552 27.4721 1.68536 27.45C1.79521 27.4279 1.89606 27.3737 1.9752 27.2943L4.71408 24.5517C6.0981 26.1102 7.79647 27.3571 9.69709 28.2101C11.5977 29.0631 13.6574 29.5027 15.7402 29.5C17.823 29.4973 19.8815 29.0523 21.7799 28.1944C23.6783 27.3364 25.3734 26.0851 26.7534 24.523C27.0387 24.1978 27.1904 23.7764 27.1778 23.3437C27.1653 22.9111 26.9894 22.4992 26.6857 22.1912L23.1804 18.6429C23.0105 18.4727 22.8067 18.3403 22.5822 18.2544C22.3578 18.1685 22.1177 18.131 21.8778 18.1443C21.6379 18.1577 21.4035 18.2215 21.1899 18.3318C20.9763 18.442 20.7883 18.5961 20.6383 18.7841C20.2651 19.2402 19.8311 19.6428 19.3485 19.9807C18.5192 20.6292 17.8261 21.0257 15.2657 21.0792C14.3707 21.0058 13.5016 20.7424 12.7161 20.3065C11.9307 19.8706 11.247 19.2722 10.7105 18.5512L14.0564 15.2007C14.1357 15.1214 14.1898 15.0204 14.2118 14.9105C14.2339 14.8005 14.2229 14.6864 14.1803 14.5826C14.1377 14.4789 14.0654 14.3901 13.9724 14.3274C13.8795 14.2648 13.7701 14.2311 13.6581 14.2306C12.1179 14.2365 10.7128 14.2407 9.44299 14.2434C9.522 13.353 9.78864 12.4895 10.2253 11.7098C10.662 10.9302 11.2588 10.2521 11.9763 9.72027L15.3406 13.0755C15.4201 13.1551 15.5215 13.2091 15.6318 13.2308C15.7421 13.2526 15.8564 13.241 15.9601 13.1976C16.0638 13.1541 16.1523 13.0808 16.2143 12.987C16.2764 12.8931 16.3092 12.7829 16.3085 12.6703C16.3037 11.3508 16.2982 9.90853 16.2958 8.479C17.1771 8.5614 18.0314 8.82813 18.8033 9.26195C19.5752 9.69577 20.2476 10.287 20.7769 10.9974L17.431 14.3479C17.3517 14.4272 17.2976 14.5281 17.2755 14.6381C17.2535 14.7481 17.2644 14.8622 17.307 14.966C17.3496 15.0697 17.422 15.1585 17.5149 15.2212C17.6079 15.2838 17.7173 15.3175 17.8293 15.318C24.0328 15.294 28.087 15.2948 29.8818 15.318H29.9256C30.0001 15.3177 30.0738 15.3028 30.1426 15.2741C30.2113 15.2454 30.2737 15.2034 30.3262 15.1505C30.3788 15.0976 30.4204 15.0348 30.4487 14.9658C30.477 14.8969 30.4915 14.823 30.4912 14.7484C30.492 14.5402 30.4873 14.3296 30.4785 14.1461ZM9.57443 18.0821C9.48265 18.1731 9.4247 18.2929 9.41021 18.4214C9.39572 18.55 9.42556 18.6796 9.49477 18.7889C10.1208 19.7655 10.9647 20.5831 11.9601 21.1774C12.9554 21.7717 14.075 22.1264 15.2306 22.2135C18.1934 22.1553 19.0601 21.6464 20.0217 20.8941C20.5806 20.502 21.0834 20.0352 21.5162 19.5068C21.5694 19.4406 21.6358 19.3864 21.7113 19.3476C21.7868 19.3088 21.8696 19.2864 21.9544 19.2819C22.0319 19.277 22.1095 19.289 22.1819 19.3173C22.2543 19.3455 22.3196 19.3893 22.3734 19.4454L25.8787 22.9937C25.9805 23.0964 26.0396 23.2339 26.0442 23.3785C26.0488 23.5232 25.9984 23.6642 25.9033 23.7731C24.5975 25.251 22.9864 26.4269 21.1817 27.2194C19.377 28.0119 17.4217 28.402 15.4515 28.3627C13.4812 28.3234 11.5431 27.8556 9.7713 26.9918C7.99952 26.1279 6.43648 24.8887 5.19048 23.3599C5.14031 23.2983 5.07781 23.248 5.007 23.2121C4.93619 23.1762 4.85866 23.1557 4.7794 23.1517H4.75073C4.67664 23.1519 4.60333 23.1667 4.53498 23.1953C4.46663 23.2239 4.40458 23.2657 4.3524 23.3184L2.14011 25.5249V15.3762C2.14035 15.3738 2.14035 15.3714 2.14011 15.369C3.98355 15.3858 7.38604 15.3874 12.2838 15.369L9.57443 18.0821ZM15.1661 11.3014L12.4416 8.5843C12.3505 8.49329 12.2312 8.43587 12.1034 8.42138C11.9755 8.40689 11.8465 8.4362 11.7373 8.50453C10.7768 9.11644 9.96871 9.94027 9.37497 10.913C8.78123 11.8857 8.41755 12.9815 8.31175 14.1166C8.2998 14.1557 8.29342 14.2027 8.28466 14.245C5.47966 14.2498 3.4251 14.245 2.1425 14.2338C2.21175 12.2984 2.69474 10.4004 3.55889 8.66784C4.42304 6.93527 5.64824 5.40845 7.15182 4.19039C7.21363 4.14016 7.26418 4.07747 7.30019 4.00639C7.3362 3.9353 7.35687 3.85743 7.36086 3.77782C7.36484 3.69822 7.35204 3.61866 7.32331 3.54433C7.29457 3.47 7.25053 3.40256 7.19405 3.34639L4.97458 1.13827H15.1717C15.1462 3.38149 15.1534 7.61187 15.1661 11.2982V11.3014ZM25.3688 14.1644C23.6841 14.1644 21.6277 14.1687 19.1995 14.1772L21.9082 11.4649C21.9999 11.3739 22.0579 11.2541 22.0724 11.1256C22.0869 10.997 22.057 10.8674 21.9878 10.7581C21.3748 9.79949 20.5514 8.99358 19.5803 8.40177C18.6093 7.80996 17.5161 7.44785 16.3842 7.34303C16.3555 7.33425 16.3205 7.33027 16.2902 7.32309C16.2902 4.91154 16.2902 2.64918 16.3013 1.19731C18.2263 1.27008 20.1136 1.75308 21.8374 2.61407C23.5611 3.47506 25.0817 4.69426 26.2977 6.19031C26.3478 6.25181 26.4103 6.30209 26.4811 6.33792C26.5519 6.37374 26.6294 6.39431 26.7085 6.3983C26.7877 6.40228 26.8669 6.38959 26.9409 6.36105C27.0149 6.33251 27.0821 6.28874 27.1382 6.23259L29.3433 4.02447V14.17C29.343 14.1724 29.343 14.1748 29.3433 14.1772C28.4136 14.1692 27.0864 14.1644 25.3688 14.1644Z" stroke="#015959" stroke-width="1.68571" mask="url(#path-1-inside-1_214_550)"/>
</svg>
