<svg width="51" height="50" viewBox="0 0 51 50" fill="none" xmlns="http://www.w3.org/2000/svg">
<path fill-rule="evenodd" clip-rule="evenodd" d="M25.4913 3.05176e-05C11.683 3.05176e-05 0.491333 11.1938 0.491333 25C0.491333 38.8063 11.683 50 25.4913 50C39.2976 50 50.4913 38.8063 50.4913 25C50.4913 11.1938 39.2976 3.05176e-05 25.4913 3.05176e-05ZM25.783 39.6209C17.7247 39.6209 11.1997 33.0792 11.1997 25C11.1997 16.9209 17.7247 10.3792 25.783 10.3792C29.7205 10.3792 33.0122 11.8313 35.5372 14.1896L31.4247 18.3104V18.3021C29.8934 16.8396 27.9517 16.0896 25.783 16.0896C20.9705 16.0896 17.0601 20.1646 17.0601 24.9917C17.0601 29.8146 20.9705 33.9021 25.783 33.9021C30.1497 33.9021 33.1205 31.3979 33.733 27.9604H25.783V22.2584H39.5017C39.6851 23.2375 39.783 24.2584 39.783 25.3292C39.783 33.6834 34.2059 39.6209 25.783 39.6209Z" fill="url(#paint0_linear_171_557)"/>
<defs>
<linearGradient id="paint0_linear_171_557" x1="0.491333" y1="25.5556" x2="47.7136" y2="25.5556" gradientUnits="userSpaceOnUse">
<stop stop-color="#6FDFDF"/>
<stop offset="1" stop-color="#00A5A5"/>
</linearGradient>
</defs>
</svg>
