<svg width="51" height="50" viewBox="0 0 51 50" fill="none" xmlns="http://www.w3.org/2000/svg">
<g clip-path="url(#clip0_1_473)">
<path d="M50.9321 25C50.9321 31.6304 48.2982 37.9893 43.6098 42.6777C38.9214 47.3661 32.5625 50 25.9321 50C19.3018 50 12.9429 47.3661 8.25446 42.6777C3.56606 37.9893 0.932129 31.6304 0.932129 25C0.932129 18.3696 3.56606 12.0107 8.25446 7.32233C12.9429 2.63393 19.3018 0 25.9321 0C32.5625 0 38.9214 2.63393 43.6098 7.32233C48.2982 12.0107 50.9321 18.3696 50.9321 25ZM18.1071 18.8531H20.6853C21.1165 18.8531 21.4603 18.5 21.5165 18.0718C21.7978 16.0219 23.204 14.5281 25.7103 14.5281C27.854 14.5281 29.8165 15.6 29.8165 18.1781C29.8165 20.1625 28.6478 21.075 26.8008 22.4625C24.6978 23.9906 23.0321 25.775 23.1509 28.6719L23.1603 29.35C23.1635 29.555 23.2473 29.7506 23.3934 29.8944C23.5396 30.0381 23.7365 30.1188 23.9415 30.1187H26.4758C26.6831 30.1187 26.8818 30.0365 27.0283 29.8899C27.1748 29.7434 27.2571 29.5447 27.2571 29.3375V29.0093C27.2571 26.7656 28.1103 26.1125 30.4134 24.3656C32.3165 22.9188 34.3008 21.3125 34.3008 17.9406C34.3008 13.2188 30.3134 10.9375 25.9478 10.9375C21.9884 10.9375 17.6508 12.7812 17.354 18.0813C17.3497 18.1821 17.3661 18.2829 17.4022 18.3772C17.4383 18.4716 17.4933 18.5575 17.5639 18.6298C17.6344 18.7021 17.719 18.7593 17.8124 18.7977C17.9058 18.836 18.0061 18.8549 18.1071 18.8531ZM25.3728 38.9875C27.279 38.9875 28.5884 37.7562 28.5884 36.0906C28.5884 34.3657 27.2759 33.1531 25.3728 33.1531C23.5478 33.1531 22.2196 34.3657 22.2196 36.0906C22.2196 37.7562 23.5478 38.9875 25.3759 38.9875H25.3728Z" fill="url(#paint0_linear_1_473)"/>
<path d="M50.9321 25C50.9321 31.6304 48.2982 37.9893 43.6098 42.6777C38.9214 47.3661 32.5625 50 25.9321 50C19.3018 50 12.9429 47.3661 8.25446 42.6777C3.56606 37.9893 0.932129 31.6304 0.932129 25C0.932129 18.3696 3.56606 12.0107 8.25446 7.32233C12.9429 2.63393 19.3018 0 25.9321 0C32.5625 0 38.9214 2.63393 43.6098 7.32233C48.2982 12.0107 50.9321 18.3696 50.9321 25ZM18.1071 18.8531H20.6853C21.1165 18.8531 21.4603 18.5 21.5165 18.0718C21.7978 16.0219 23.204 14.5281 25.7103 14.5281C27.854 14.5281 29.8165 15.6 29.8165 18.1781C29.8165 20.1625 28.6478 21.075 26.8008 22.4625C24.6978 23.9906 23.0321 25.775 23.1509 28.6719L23.1603 29.35C23.1635 29.555 23.2473 29.7506 23.3934 29.8944C23.5396 30.0381 23.7365 30.1188 23.9415 30.1187H26.4758C26.6831 30.1187 26.8818 30.0365 27.0283 29.8899C27.1748 29.7434 27.2571 29.5447 27.2571 29.3375V29.0093C27.2571 26.7656 28.1103 26.1125 30.4134 24.3656C32.3165 22.9188 34.3008 21.3125 34.3008 17.9406C34.3008 13.2188 30.3134 10.9375 25.9478 10.9375C21.9884 10.9375 17.6508 12.7812 17.354 18.0813C17.3497 18.1821 17.3661 18.2829 17.4022 18.3772C17.4383 18.4716 17.4933 18.5575 17.5639 18.6298C17.6344 18.7021 17.719 18.7593 17.8124 18.7977C17.9058 18.836 18.0061 18.8549 18.1071 18.8531ZM25.3728 38.9875C27.279 38.9875 28.5884 37.7562 28.5884 36.0906C28.5884 34.3657 27.2759 33.1531 25.3728 33.1531C23.5478 33.1531 22.2196 34.3657 22.2196 36.0906C22.2196 37.7562 23.5478 38.9875 25.3759 38.9875H25.3728Z" fill="url(#paint1_linear_1_473)"/>
</g>
<defs>
<linearGradient id="paint0_linear_1_473" x1="10.023" y1="-1.02445e-06" x2="48.2806" y2="38.2576" gradientUnits="userSpaceOnUse">
<stop stop-color="#097070"/>
<stop offset="1" stop-color="#011C1C"/>
</linearGradient>
<linearGradient id="paint1_linear_1_473" x1="0.932129" y1="25.5556" x2="48.1544" y2="25.5556" gradientUnits="userSpaceOnUse">
<stop stop-color="#41C8C8"/>
<stop offset="1" stop-color="#008181"/>
</linearGradient>
<clipPath id="clip0_1_473">
<rect width="50" height="50" fill="white" transform="translate(0.932129)"/>
</clipPath>
</defs>
</svg>
