<svg width="51" height="50" viewBox="0 0 51 50" fill="none" xmlns="http://www.w3.org/2000/svg">
<path fill-rule="evenodd" clip-rule="evenodd" d="M43.6127 42.6777C48.3019 37.9893 50.9363 31.6304 50.9363 25C50.9363 18.3696 48.3019 12.0107 43.6127 7.32232C38.9235 2.63393 32.5635 0 25.932 0C19.3005 0 12.9405 2.63393 8.25132 7.32232C3.56211 12.0107 0.927734 18.3696 0.927734 25C0.927734 31.6304 3.56211 37.9893 8.25132 42.6777C12.9405 47.3661 19.3005 50 25.932 50C32.5635 50 38.9235 47.3661 43.6127 42.6777ZM27.0998 9.75778L41.2673 25.51C41.4723 25.7358 41.6072 26.0164 41.6555 26.3176C41.7039 26.6188 41.6637 26.9276 41.5397 27.2063C41.4157 27.485 41.2133 27.7216 40.9573 27.8872C40.7013 28.0528 40.4026 28.1403 40.0978 28.139H36.9494V39.1656C36.9494 39.5833 36.7836 39.984 36.4883 40.2794C36.1931 40.5748 35.7928 40.7407 35.3752 40.7407H30.6527C30.2352 40.7407 29.8348 40.5748 29.5397 40.2794C29.2444 39.984 29.0786 39.5833 29.0786 39.1656V32.8646H22.7819V39.1656C22.7819 39.5833 22.6161 39.984 22.3208 40.2794C22.0256 40.5748 21.6253 40.7407 21.2077 40.7407H16.4852C16.0677 40.7407 15.6673 40.5748 15.3721 40.2794C15.0769 39.984 14.911 39.5833 14.911 39.1656V28.139H11.7627C11.141 28.139 10.5773 27.7736 10.3255 27.2049C10.2012 26.9269 10.1603 26.6186 10.2078 26.3177C10.2553 26.0168 10.3892 25.7362 10.5931 25.51L24.7606 9.75778C25.3572 9.09308 26.5032 9.09308 27.0998 9.75778Z" fill="url(#paint0_linear_108_107)"/>
<path fill-rule="evenodd" clip-rule="evenodd" d="M43.6127 42.6777C48.3019 37.9893 50.9363 31.6304 50.9363 25C50.9363 18.3696 48.3019 12.0107 43.6127 7.32232C38.9235 2.63393 32.5635 0 25.932 0C19.3005 0 12.9405 2.63393 8.25132 7.32232C3.56211 12.0107 0.927734 18.3696 0.927734 25C0.927734 31.6304 3.56211 37.9893 8.25132 42.6777C12.9405 47.3661 19.3005 50 25.932 50C32.5635 50 38.9235 47.3661 43.6127 42.6777ZM27.0998 9.75778L41.2673 25.51C41.4723 25.7358 41.6072 26.0164 41.6555 26.3176C41.7039 26.6188 41.6637 26.9276 41.5397 27.2063C41.4157 27.485 41.2133 27.7216 40.9573 27.8872C40.7013 28.0528 40.4026 28.1403 40.0978 28.139H36.9494V39.1656C36.9494 39.5833 36.7836 39.984 36.4883 40.2794C36.1931 40.5748 35.7928 40.7407 35.3752 40.7407H30.6527C30.2352 40.7407 29.8348 40.5748 29.5397 40.2794C29.2444 39.984 29.0786 39.5833 29.0786 39.1656V32.8646H22.7819V39.1656C22.7819 39.5833 22.6161 39.984 22.3208 40.2794C22.0256 40.5748 21.6253 40.7407 21.2077 40.7407H16.4852C16.0677 40.7407 15.6673 40.5748 15.3721 40.2794C15.0769 39.984 14.911 39.5833 14.911 39.1656V28.139H11.7627C11.141 28.139 10.5773 27.7736 10.3255 27.2049C10.2012 26.9269 10.1603 26.6186 10.2078 26.3177C10.2553 26.0168 10.3892 25.7362 10.5931 25.51L24.7606 9.75778C25.3572 9.09308 26.5032 9.09308 27.0998 9.75778Z" fill="url(#paint1_linear_108_107)"/>
<defs>
<linearGradient id="paint0_linear_108_107" x1="10.0202" y1="-1.02445e-06" x2="48.2778" y2="38.2641" gradientUnits="userSpaceOnUse">
<stop stop-color="#097070"/>
<stop offset="1" stop-color="#011C1C"/>
</linearGradient>
<linearGradient id="paint1_linear_108_107" x1="0.927734" y1="25.5556" x2="48.158" y2="25.5556" gradientUnits="userSpaceOnUse">
<stop stop-color="#41C8C8"/>
<stop offset="1" stop-color="#008181"/>
</linearGradient>
</defs>
</svg>
