<svg width="51" height="50" viewBox="0 0 51 50" fill="none" xmlns="http://www.w3.org/2000/svg">
<g clip-path="url(#clip0_1_502)">
<path d="M50.0387 14.7577C50.0107 12.6583 49.617 10.5798 48.8753 8.61515C48.2321 6.95796 47.2497 5.45293 45.9909 4.19623C44.7321 2.93952 43.2246 1.95878 41.5647 1.31667C39.622 0.588638 37.5697 0.194981 35.4951 0.152456C32.8241 0.0332633 31.9772 0 25.1969 0C18.4166 0 17.5475 1.93715e-07 14.8959 0.152456C12.8223 0.195293 10.771 0.588946 8.82921 1.31667C7.169 1.95834 5.66123 2.93892 4.40238 4.19568C3.14353 5.45244 2.16131 6.9577 1.51857 8.61515C0.787865 10.5531 0.394407 12.6015 0.355193 14.6718C0.235802 17.3412 0.199707 18.1866 0.199707 24.9557C0.199707 31.7247 0.199707 32.5895 0.355193 35.2395C0.396842 37.3129 0.788334 39.3586 1.51857 41.3017C2.16239 42.9586 3.14533 44.4633 4.40461 45.7195C5.66388 46.9757 7.17179 47.9559 8.83198 48.5974C10.7684 49.3547 12.8201 49.7765 14.8987 49.8448C17.5725 49.964 18.4194 50 25.1997 50C31.98 50 32.8491 50 35.5007 49.8448C37.5752 49.804 39.6276 49.4113 41.5702 48.6833C43.2297 48.0405 44.7369 47.0595 45.9956 45.8029C47.2543 44.5463 48.2369 43.0416 48.8808 41.3849C49.6111 39.4445 50.0026 37.3988 50.0442 35.3227C50.1636 32.6561 50.1997 31.8106 50.1997 25.0388C50.1941 18.2698 50.1941 17.4105 50.0387 14.7577ZM25.1803 37.7564C18.089 37.7564 12.3443 32.0213 12.3443 24.9418C12.3443 17.8623 18.089 12.1272 25.1803 12.1272C28.5846 12.1272 31.8495 13.4773 34.2567 15.8805C36.6639 18.2837 38.0162 21.5431 38.0162 24.9418C38.0162 28.3404 36.6639 31.5999 34.2567 34.0031C31.8495 36.4063 28.5846 37.7564 25.1803 37.7564ZM38.5271 14.6413C36.8695 14.6413 35.534 13.3052 35.534 11.6532C35.534 11.261 35.6114 10.8726 35.7617 10.5102C35.9121 10.1478 36.1325 9.81857 36.4103 9.54123C36.6881 9.26388 37.0179 9.04388 37.3808 8.89378C37.7438 8.74368 38.1328 8.66643 38.5257 8.66643C38.9186 8.66643 39.3076 8.74368 39.6706 8.89378C40.0336 9.04388 40.3634 9.26388 40.6412 9.54123C40.919 9.81857 41.1394 10.1478 41.2897 10.5102C41.4401 10.8726 41.5174 11.261 41.5174 11.6532C41.5174 13.3052 40.1792 14.6413 38.5271 14.6413Z" fill="#1AC7C7"/>
<path d="M25.1997 34C30.1703 34 34.1997 29.9706 34.1997 25C34.1997 20.0294 30.1703 16 25.1997 16C20.2291 16 16.1997 20.0294 16.1997 25C16.1997 29.9706 20.2291 34 25.1997 34Z" fill="#1AC7C7"/>
</g>
<defs>
<clipPath id="clip0_1_502">
<rect width="50" height="50" fill="white" transform="translate(0.199707)"/>
</clipPath>
</defs>
</svg>
