<svg width="29" height="28" viewBox="0 0 29 28" fill="none" xmlns="http://www.w3.org/2000/svg">
<g clip-path="url(#clip0_3_1751)">
<path fill-rule="evenodd" clip-rule="evenodd" d="M21.6596 0.184015C23.2748 0.512616 24.7697 1.27443 25.9837 2.38757C27.1976 3.50071 28.0847 4.92307 28.5495 6.50174C28.9801 7.94922 29.0442 9.48067 28.7358 10.9601C28.2899 12.9871 27.168 14.8029 25.5536 16.1105C23.9391 17.418 21.9279 18.1397 19.849 18.1575C18.9717 18.1575 18.0985 18.0316 17.2592 17.7777L15.6569 19.653L14.8978 20.0029H12.945V23.0018L11.9436 24.0014H8.93927V27.0004L7.93783 28H1.92918L0.927734 27.0004V22.388L1.22016 21.6823L11.1825 11.7379C10.8998 10.8288 10.7645 9.88053 10.7819 8.92887C10.8002 7.59742 11.1125 6.28638 11.6965 5.08922C12.2806 3.89205 13.122 2.83824 14.1608 2.0029C15.1997 1.16756 16.4103 0.571268 17.7065 0.256525C19.0027 -0.0582184 20.3524 -0.0836592 21.6596 0.182016V0.184015ZM24.2994 14.5788C25.5576 13.5618 26.4325 12.1485 26.781 10.5703L26.789 10.5803C27.0371 9.42629 26.9925 8.22871 26.6591 7.09633C26.3257 5.96396 25.7141 4.93269 24.8799 4.09623C24.0457 3.25977 23.0154 2.64464 21.8825 2.30672C20.7496 1.9688 19.5501 1.91882 18.3929 2.1613C16.8322 2.50707 15.4323 3.3641 14.416 4.59594C13.3997 5.82777 12.8255 7.36359 12.7848 8.95886C12.7648 9.87053 12.925 10.7742 13.2635 11.6179L13.0432 12.7035L2.93062 22.8019V26.0007H6.93639V23.0018L7.93783 22.0022H10.9422V19.0032L11.9436 18.0036H14.4372L16.1917 15.9723L17.3153 15.6924C18.1253 16.0084 18.9874 16.1698 19.857 16.1683C21.4754 16.1559 23.0416 15.5955 24.2994 14.5788ZM22.621 9.1168C22.7789 8.89898 22.8912 8.6516 22.9511 8.38946C23.011 8.12732 23.0174 7.8558 22.9697 7.59116C22.9221 7.32652 22.8215 7.07419 22.6739 6.84926C22.5263 6.62434 22.3348 6.43144 22.1108 6.2821C21.8868 6.13277 21.6349 6.03007 21.3702 5.98016C21.1056 5.93024 20.8335 5.93413 20.5704 5.99159C20.3072 6.04905 20.0584 6.1589 19.8388 6.31458C19.6192 6.47025 19.4332 6.66854 19.2922 6.8976C19.0208 7.33821 18.9311 7.86667 19.0418 8.37194C19.1525 8.87722 19.4551 9.31999 19.886 9.60726C20.3169 9.89452 20.8426 10.0039 21.3526 9.91246C21.8625 9.821 22.3172 9.53581 22.621 9.1168Z" fill="url(#paint0_linear_3_1751)"/>
</g>
<defs>
<linearGradient id="paint0_linear_3_1751" x1="0.927734" y1="14.3111" x2="27.3722" y2="14.3111" gradientUnits="userSpaceOnUse">
<stop stop-color="#6FDFDF"/>
<stop offset="1" stop-color="#00A5A5"/>
</linearGradient>
<clipPath id="clip0_3_1751">
<rect width="28" height="28" fill="white" transform="translate(0.927734)"/>
</clipPath>
</defs>
</svg>
