<svg width="518" height="392" viewBox="0 0 518 392" fill="none" xmlns="http://www.w3.org/2000/svg">
<g clip-path="url(#clip0_3_696)">
<g filter="url(#filter0_f_3_696)">
<path d="M61.2762 120.236C85.7341 120.236 105.561 100.484 105.561 76.1181C105.561 51.7523 85.7341 32 61.2762 32C36.8183 32 16.9913 51.7523 16.9913 76.1181C16.9913 100.484 36.8183 120.236 61.2762 120.236Z" fill="#2C5D57"/>
</g>
<g filter="url(#filter1_f_3_696)">
<path d="M385.077 73.854C386.394 72.3956 387.609 70.8483 388.712 69.2231L365.625 63.845L390.859 65.7178C393.634 60.6298 395.338 55.0312 395.867 49.2646C396.395 43.498 395.737 37.6846 393.932 32.1802L358.883 47.4234L391.659 26.6337C389.072 21.4001 385.43 16.7534 380.961 12.983C376.492 9.21269 371.292 6.39947 365.684 4.71862C360.077 3.03777 354.182 2.5253 348.366 3.21315C342.551 3.901 336.94 5.77442 331.884 8.71671C326.827 11.659 322.432 15.6071 318.974 20.3151C315.516 25.0231 313.068 30.3902 311.782 36.0819C310.497 41.7736 310.401 47.668 311.502 53.398C312.603 59.128 314.876 64.5708 318.181 69.3873C316.128 71.6569 314.326 74.1404 312.807 76.7947L342.054 94.5014L310.471 81.541C307.753 88.0707 306.712 95.1726 307.442 102.204C308.172 109.235 310.651 115.974 314.654 121.811C309.746 127.238 306.324 133.834 304.721 140.963C303.117 148.091 303.385 155.511 305.499 162.506C307.612 169.501 311.501 175.836 316.788 180.897C322.075 185.959 328.583 189.578 335.683 191.404C335.014 192.947 334.617 194.593 334.51 196.271C334.319 198.752 334.794 201.238 335.888 203.475C334.527 205.557 333.724 207.953 333.557 210.432C333.391 212.911 333.865 215.392 334.935 217.636C333.574 219.718 332.771 222.114 332.605 224.593C332.438 227.072 332.912 229.553 333.983 231.797C332.621 233.879 331.819 236.275 331.652 238.754C331.485 241.233 331.96 243.714 333.03 245.958C331.646 248.03 330.842 250.431 330.699 252.915C330.269 259.314 333.897 264.767 338.804 265.095C343.71 265.422 348.037 260.5 348.467 254.101C348.659 251.621 348.183 249.134 347.089 246.897C348.451 244.815 349.253 242.42 349.42 239.94C349.587 237.461 349.113 234.981 348.042 232.736C349.404 230.654 350.206 228.259 350.373 225.779C350.54 223.3 350.065 220.82 348.995 218.575C350.356 216.493 351.159 214.098 351.326 211.618C351.492 209.139 351.018 206.658 349.948 204.414C351.331 202.343 352.136 199.941 352.278 197.457C352.399 195.756 352.22 194.047 351.749 192.408C358.992 191.484 365.875 188.724 371.741 184.391C377.606 180.058 382.257 174.297 385.247 167.661C388.238 161.024 389.468 153.734 388.821 146.488C388.174 139.243 385.67 132.284 381.55 126.278C387.952 119.199 391.781 110.181 392.42 100.674C393.06 91.1666 390.474 81.721 385.077 73.8541V73.854Z" fill="#286860"/>
</g>
<path d="M431.67 261.222C431.67 267.487 387.326 288.953 334.497 288.953C281.669 288.953 240.361 267.487 240.361 261.222C240.361 254.957 281.669 266.264 334.497 266.264C387.326 266.264 431.67 254.956 431.67 261.222Z" fill="#214B4B"/>
<path opacity="0.1" d="M431.67 261.222C431.67 267.487 387.326 288.953 334.497 288.953C281.669 288.953 240.361 267.487 240.361 261.222C240.361 254.957 281.669 266.264 334.497 266.264C387.326 266.264 431.67 254.956 431.67 261.222Z" fill="#1F3F3F"/>
<path d="M336.015 272.566C388.844 272.566 431.67 267.487 431.67 261.222C431.67 254.957 388.844 249.877 336.015 249.877C283.187 249.877 240.361 254.957 240.361 261.222C240.361 267.487 283.187 272.566 336.015 272.566Z" fill="#2F6C6C"/>
<path opacity="0.1" d="M338.278 271.925C356.195 271.925 370.719 267.79 370.719 262.691C370.719 257.591 356.195 253.457 338.278 253.457C320.361 253.457 305.837 257.591 305.837 262.691C305.837 267.79 320.361 271.925 338.278 271.925Z" fill="black"/>
<path d="M345.395 201.368C346.637 199.21 347.278 196.76 347.254 194.272C347.254 187.859 343.267 182.66 338.35 182.66C333.432 182.66 329.446 187.859 329.446 194.272C329.421 196.76 330.063 199.21 331.304 201.368C330.085 203.537 329.446 205.98 329.446 208.465C329.446 210.95 330.085 213.393 331.304 215.561C330.085 217.729 329.446 220.173 329.446 222.658C329.446 225.143 330.085 227.586 331.304 229.754C330.085 231.922 329.446 234.366 329.446 236.851C329.446 239.335 330.085 241.779 331.304 243.947C330.063 246.106 329.421 248.555 329.446 251.043C329.446 257.457 333.432 262.656 338.35 262.656C343.267 262.656 347.254 257.457 347.254 251.043C347.278 248.555 346.637 246.106 345.395 243.947C346.614 241.779 347.254 239.335 347.254 236.851C347.254 234.366 346.614 231.922 345.395 229.754C346.614 227.586 347.254 225.143 347.254 222.658C347.254 220.173 346.614 217.729 345.395 215.561C346.614 213.393 347.254 210.95 347.254 208.465C347.254 205.98 346.614 203.537 345.395 201.368Z" fill="#3D5650"/>
<path d="M338.35 191.692C343.267 191.692 347.254 186.493 347.254 180.079C347.254 173.666 343.267 168.467 338.35 168.467C333.432 168.467 329.446 173.666 329.446 180.079C329.446 186.493 333.432 191.692 338.35 191.692Z" fill="#3D5650"/>
<path d="M338.35 177.499C343.267 177.499 347.254 172.3 347.254 165.886C347.254 159.473 343.267 154.274 338.35 154.274C333.432 154.274 329.446 159.473 329.446 165.886C329.446 172.3 333.432 177.499 338.35 177.499Z" fill="#3D5650"/>
<path d="M371.681 68.7603C372.898 67.2174 374.006 65.5926 374.997 63.8976L351.601 60.0696L376.904 60.257C379.332 54.9956 380.656 49.296 380.796 43.5071C380.936 37.7182 379.889 31.9617 377.719 26.5898L343.771 44.1339L375.079 21.2071C372.146 16.1577 368.2 11.764 363.489 8.29986C358.777 4.83569 353.399 2.37524 347.691 1.07176C341.983 -0.231713 336.067 -0.35028 330.311 0.723449C324.555 1.79718 319.083 4.0402 314.235 7.31278C309.387 10.5854 305.267 14.8174 302.133 19.7453C298.998 24.6731 296.916 30.1912 296.015 35.9558C295.114 41.7204 295.415 47.608 296.898 53.2518C298.381 58.8956 301.015 64.1747 304.635 68.7603C302.739 71.1616 301.108 73.7596 299.771 76.5091L330.141 92.2277L297.758 81.4005C295.484 88.0966 294.922 95.2519 296.123 102.219C297.324 109.186 300.249 115.745 304.635 121.302C299.687 127.569 296.608 135.097 295.752 143.025C294.896 150.953 296.297 158.962 299.794 166.134C303.29 173.307 308.743 179.354 315.527 183.585C322.311 187.816 330.154 190.06 338.158 190.06C346.162 190.06 354.005 187.816 360.789 183.585C367.573 179.354 373.026 173.307 376.523 166.134C380.02 158.962 381.42 150.953 380.564 143.025C379.708 135.097 376.629 127.569 371.681 121.302C377.594 113.812 380.809 104.56 380.809 95.0309C380.809 85.5023 377.594 76.2501 371.681 68.7603Z" fill="#2ED3AC"/>
<path opacity="0.1" d="M295.508 95.031C295.493 104.562 298.709 113.819 304.635 121.302C299.687 127.569 296.608 135.097 295.752 143.025C294.896 150.953 296.297 158.962 299.794 166.134C303.291 173.307 308.743 179.354 315.527 183.585C322.312 187.816 330.154 190.06 338.158 190.06C346.162 190.06 354.005 187.816 360.789 183.585C367.573 179.354 373.026 173.307 376.523 166.134C380.02 158.962 381.42 150.953 380.564 143.025C379.708 135.097 376.63 127.569 371.681 121.302C377.398 114.072 295.508 90.2621 295.508 95.031Z" fill="black"/>
<g filter="url(#filter2_f_3_696)">
<path d="M490.227 136.816L499.834 128.281C480.763 124.747 461.624 141.461 456.629 165.793C456.463 165.825 456.299 165.866 456.136 165.915L445.304 130.521C444.506 134.73 444.152 139.012 444.247 143.295L435.799 126.952C432.385 145.233 440.514 162.22 454.161 166.292C453.021 166.293 451.883 166.212 450.755 166.048C450.703 166.041 450.668 166.035 450.668 166.035C450.58 166.937 450.606 167.847 450.745 168.743C450.804 169.244 451.019 169.715 451.36 170.089C451.777 170.462 452.952 170.976 454.491 171.507C454.61 171.547 454.73 171.588 454.853 171.629C455.834 171.957 456.941 172.288 458.084 172.592C459.512 172.972 460.995 173.31 462.355 173.551C462.503 173.577 462.638 173.594 462.766 173.604C462.807 173.608 462.843 173.607 462.883 173.609C462.965 173.613 463.046 173.615 463.12 173.612C463.161 173.61 463.198 173.606 463.236 173.602C463.299 173.597 463.361 173.588 463.422 173.576C463.456 173.569 463.489 173.561 463.521 173.552C463.573 173.538 463.624 173.52 463.674 173.498C463.7 173.487 463.727 173.476 463.751 173.463C463.797 173.438 463.841 173.41 463.882 173.377C463.899 173.364 463.917 173.353 463.933 173.339C463.98 173.296 464.022 173.248 464.058 173.195C464.062 173.19 464.066 173.186 464.07 173.181C464.11 173.119 464.143 173.052 464.168 172.982C464.17 172.978 464.17 172.972 464.172 172.968C464.195 172.9 464.212 172.831 464.223 172.76C464.224 172.755 464.226 172.751 464.226 172.747L464.224 172.749C464.473 171.117 462.178 167.665 462.149 166.687C462.12 165.752 459.819 165.501 457.938 165.628L493.286 137.201C492.275 137.014 491.253 136.885 490.227 136.816Z" fill="#2B5C56"/>
</g>
<path d="M517.992 170.89C517.992 175.138 487.924 189.693 452.104 189.693C416.284 189.693 388.275 175.138 388.275 170.89C388.275 166.641 416.284 174.308 452.104 174.308C487.924 174.308 517.992 166.641 517.992 170.89Z" fill="#214A48"/>
<path opacity="0.1" d="M517.992 170.89C517.992 175.138 487.924 189.693 452.104 189.693C416.284 189.693 388.275 175.138 388.275 170.89C388.275 166.641 416.284 174.308 452.104 174.308C487.924 174.308 517.992 166.641 517.992 170.89Z" fill="#214A48"/>
<path d="M453.133 178.582C488.954 178.582 517.992 175.138 517.992 170.89C517.992 166.642 488.954 163.198 453.133 163.198C417.313 163.198 388.275 166.642 388.275 170.89C388.275 175.138 417.313 178.582 453.133 178.582Z" fill="#2F6C6C"/>
<path opacity="0.1" d="M453.108 175.48C460.787 175.48 467.011 173.413 467.011 170.863C467.011 168.314 460.787 166.246 453.108 166.246C445.429 166.246 439.205 168.314 439.205 170.863C439.205 173.413 445.429 175.48 453.108 175.48Z" fill="black"/>
<path d="M424.2 132.595C424.2 152.198 436.545 168.06 451.8 168.06L424.2 132.595Z" fill="#3D5650"/>
<path d="M451.8 168.061C451.8 148.238 465.575 132.197 482.599 132.197L451.8 168.061Z" fill="#17BDC8"/>
<path d="M434.199 134.372C434.199 152.993 442.071 168.06 451.799 168.06L434.199 134.372Z" fill="#17BDC8"/>
<path d="M451.8 168.06C451.8 142.731 467.722 122.235 487.399 122.235L451.8 168.06Z" fill="#3D5650"/>
<path d="M445.993 168.311C445.993 168.311 449.907 168.191 451.087 167.354C452.267 166.517 457.108 165.518 457.4 166.86C457.693 168.202 463.283 173.535 458.864 173.57C454.445 173.606 448.596 172.885 447.419 172.17C446.241 171.456 445.993 168.311 445.993 168.311Z" fill="#365454"/>
<path opacity="0.2" d="M458.942 173.103C454.523 173.138 448.675 172.417 447.497 171.702C446.601 171.158 446.244 169.206 446.124 168.305C446.041 168.309 445.993 168.31 445.993 168.31C445.993 168.31 446.241 171.455 447.419 172.17C448.596 172.884 454.445 173.605 458.864 173.57C460.139 173.56 460.58 173.107 460.556 172.438C460.378 172.842 459.892 173.095 458.942 173.103Z" fill="black"/>
<g filter="url(#filter3_f_3_696)">
<path d="M106.935 117.041L111.9 124.875C110.238 127.09 109.058 129.497 109.815 131.089C111.679 135.013 115.964 140.086 118.249 142.791C120.534 145.497 120.853 152.738 136.355 151.872C151.858 151.006 158.13 144.016 158.13 144.016C158.13 144.016 159.504 156.697 166.094 161.235C165.536 162.003 164.786 162.614 163.919 163.007C156.955 166.245 149.354 192.117 144.086 206.33C138.338 221.834 147.073 219.133 147.073 219.133C149.998 219.181 152.687 219.335 155.154 219.568C158.024 227.139 162.576 243.326 157.237 259.997C153.504 271.657 154.289 283.946 155.958 293.202L152.473 296.915C148.588 298.15 147.435 300.561 147.435 300.561L138.491 312.968L139.973 314.036L145.334 306.654C145.334 306.654 146.503 307.695 148.11 310.97C149.716 314.244 145.148 327.027 145.067 327.961C144.986 328.895 149.136 335.524 154.94 337.59C155.336 337.74 155.76 337.804 156.183 337.778L155.652 343.925L158.804 343.881L159.773 332.672C159.773 332.672 162.205 348.251 162.695 349.861C163.186 351.472 168.24 351.278 173.527 352.045C178.813 352.812 184.066 346.675 178.683 343.391C173.299 340.106 172.624 329.697 172.624 329.697C175.172 322.074 169.416 312.17 169.416 312.17L168.758 305.213C168.632 305.495 168.445 305.745 168.21 305.945C167.975 306.146 167.697 306.291 167.398 306.371L168.185 297.268C174.193 290.384 182.045 281.195 186.111 275.648C193.25 265.909 192.867 263.053 192.867 263.053L200.185 230.722C202.615 230.906 205.058 230.861 207.48 230.587C212.433 229.843 210.585 213.634 207.72 200.566C208.472 197.47 209.661 193.209 211.531 187.35C212.43 184.53 213.022 181.622 213.297 178.675C214.429 166.747 210.293 156.773 208.495 153.09L209.117 151.526C209.117 151.526 214.837 145.304 210.36 134.774C210.616 133.66 210.794 132.53 210.89 131.392C211.292 126.361 210.175 121.325 207.682 116.931C207.652 116.88 207.622 116.828 207.591 116.783L207.558 116.732L207.55 116.731C207.509 116.672 207.464 116.616 207.416 116.563C205.598 114.718 196.324 111.226 194.436 110.527C194.332 110.462 194.216 110.42 194.094 110.401C193.399 110.342 194.13 107.301 194.916 104.613C195.893 103.857 196.759 102.968 197.488 101.972C201.379 100.391 204.809 97.8627 207.463 94.6177C210.117 91.3728 211.911 87.5156 212.679 83.4003C213.448 79.2849 213.166 75.0432 211.861 71.0645C210.555 67.0858 208.267 63.4975 205.207 60.629C206.287 59.1275 207.036 57.4161 207.406 55.6065C207.776 53.797 207.759 51.93 207.356 50.1274C206.953 48.3249 206.172 46.6274 205.066 45.1457C203.959 43.664 202.551 42.4315 200.934 41.5287C203.468 43.6205 205.124 46.5808 205.578 49.8277C206.032 53.0745 205.25 56.3729 203.386 59.0746C203.105 58.8569 202.819 58.6448 202.529 58.4383C203.226 56.5441 203.476 54.5152 203.259 52.5092C203.042 50.5032 202.363 48.5741 201.276 46.8718C200.189 45.1695 198.722 43.7398 196.99 42.6938C195.258 41.6478 193.308 41.0136 191.29 40.8405C189.272 40.6675 187.241 40.9602 185.356 41.6959C183.47 42.4316 181.78 43.5905 180.416 45.0827C179.053 46.5748 178.053 48.36 177.495 50.2994C176.937 52.2389 176.835 54.2805 177.197 56.2656C173.319 58.1091 169.981 60.914 167.503 64.4116C165.025 67.9092 163.49 71.9822 163.046 76.2402C162.602 80.4982 163.263 84.7986 164.966 88.7291C166.669 92.6596 169.356 96.0884 172.771 98.6871C170.261 99.8527 167.509 100.408 164.742 100.306C161.974 100.205 159.271 99.4501 156.853 98.1041C159.384 100.19 162.452 101.524 165.708 101.953C168.964 102.383 172.276 101.891 175.264 100.533C176.382 102.573 178.022 104.281 180.017 105.486C179.805 106.083 179.521 106.652 179.172 107.181L178.37 106.543L174.895 110.323L165.929 112.063C165.929 112.063 160.195 112.826 153.665 119.167C147.135 125.508 136.159 128.644 136.159 128.644L127.542 126.336C127.542 126.336 117.632 120.781 117.74 119.536C117.757 119.338 117.519 119.398 117.116 119.652L112.269 109.97C112.269 109.97 103.187 87.5483 97.3628 93.0084C91.5385 98.4686 106.935 117.041 106.935 117.041ZM170.916 265.661L171.14 263.072C174.079 258.937 175.728 248.74 176.647 239.289L175.311 262.175C173.645 263.061 172.156 264.242 170.916 265.661ZM158.924 314.076L158.877 317.539C157.927 319.233 157.214 321.048 156.757 322.935C156.483 321.28 157.628 317.562 158.924 314.076Z" fill="#2B5C56"/>
</g>
<path d="M318.284 346.007C318.284 356.398 244.737 392 157.119 392C69.5015 392 0.991333 356.398 0.991333 346.007C0.991333 335.615 69.5015 354.369 157.119 354.369C244.737 354.369 318.284 335.615 318.284 346.007Z" fill="#255350"/>
<path opacity="0.1" d="M318.284 346.007C318.284 356.398 244.737 392 157.119 392C69.5015 392 0.991333 356.398 0.991333 346.007C0.991333 335.615 69.5015 354.369 157.119 354.369C244.737 354.369 318.284 335.615 318.284 346.007Z" fill="black"/>
<path d="M159.638 364.822C247.255 364.822 318.284 356.398 318.284 346.007C318.284 335.615 247.255 327.191 159.638 327.191C72.0197 327.191 0.991333 335.615 0.991333 346.007C0.991333 356.398 72.0197 364.822 159.638 364.822Z" fill="#2F6C6C"/>
<path opacity="0.1" d="M160.623 354.004C189.631 354.004 213.147 348.951 213.147 342.718C213.147 336.485 189.631 331.432 160.623 331.432C131.615 331.432 108.099 336.485 108.099 342.718C108.099 348.951 131.615 354.004 160.623 354.004Z" fill="black"/>
<path d="M155.276 97.5301C157.472 95.8668 159.243 93.709 160.442 91.2332C161.64 88.7575 162.234 86.0341 162.174 83.286C162.113 80.5378 161.401 77.843 160.094 75.4219C158.787 73.0008 156.924 70.9222 154.656 69.3563C156.87 70.3529 158.85 71.7981 160.472 73.5998C162.093 75.4014 163.32 77.5199 164.073 79.8202C164.827 82.1204 165.091 84.5519 164.849 86.9595C164.607 89.3672 163.864 91.6981 162.667 93.8037C161.47 95.9092 159.846 97.7432 157.898 99.1886C155.95 100.634 153.721 101.659 151.354 102.199C148.986 102.738 146.531 102.78 144.147 102.321C141.762 101.863 139.499 100.915 137.502 99.5366C140.372 100.828 143.538 101.324 146.666 100.971C149.795 100.618 152.77 99.4288 155.276 97.5301Z" fill="#2F2E41"/>
<path d="M186.801 113.763H189.624C191.711 116.725 193.128 120.103 193.778 123.664C194.428 127.225 194.295 130.884 193.389 134.388C190.252 146.264 192.761 148.452 192.761 148.452C192.761 148.452 204.054 164.39 199.663 183.766C195.271 203.141 196.526 205.329 196.526 205.329L188.683 189.703L184.292 148.452L186.801 113.763Z" fill="#16CEC3"/>
<path opacity="0.1" d="M186.801 113.779H189.624C191.711 116.742 193.128 120.12 193.778 123.681C194.428 127.241 194.295 130.9 193.389 134.405C190.252 146.28 192.761 148.468 192.761 148.468C192.761 148.468 204.054 164.406 199.663 183.782C195.271 203.158 196.526 205.345 196.526 205.345L188.683 189.72L184.292 148.468L186.801 113.779Z" fill="#1C8C86"/>
<path d="M166.881 102.668C180.741 102.668 191.977 91.4746 191.977 77.6669C191.977 63.8592 180.741 52.6658 166.881 52.6658C153.021 52.6658 141.785 63.8592 141.785 77.6669C141.785 91.4746 153.021 102.668 166.881 102.668Z" fill="#2F2E41"/>
<path d="M176.92 98.6053C176.92 98.6053 174.41 108.606 175.665 108.606C176.92 108.606 181.312 113.918 181.312 113.918L184.135 124.231L181.939 131.732L174.41 130.169L165 119.856L162.176 117.044L159.667 107.981C159.667 107.981 162.804 104.231 160.608 101.105C158.412 97.9802 176.92 98.6053 176.92 98.6053Z" fill="#FBBEBE"/>
<path opacity="0.1" d="M176.92 98.6053C176.92 98.6053 174.41 108.606 175.665 108.606C176.92 108.606 181.312 113.918 181.312 113.918L184.135 124.231L181.939 131.732L174.41 130.169L165 119.856L162.176 117.044L159.667 107.981C159.667 107.981 162.804 104.231 160.608 101.105C158.412 97.9802 176.92 98.6053 176.92 98.6053Z" fill="black"/>
<path d="M101.005 126.419L94.1039 115.169C94.1039 115.169 86.6543 98.7479 81.3215 104.686C75.9887 110.623 89.3985 122.669 89.3985 122.669L96.2998 131.732L101.005 126.419Z" fill="#FBBEBE"/>
<path d="M192.605 224.236L187.586 260.8C187.586 260.8 188.213 263.613 181.94 273.926C175.666 284.239 158.726 306.74 158.726 306.74L153.707 297.364C153.707 297.364 159.667 267.676 170.019 261.425L168.764 216.423L192.605 224.236Z" fill="#FBBEBE"/>
<path opacity="0.1" d="M192.605 224.236L187.586 260.8C187.586 260.8 188.213 263.613 181.94 273.926C175.666 284.239 158.726 306.74 158.726 306.74L153.707 297.364C153.707 297.364 159.667 267.676 170.019 261.425L168.764 216.423L192.605 224.236Z" fill="black"/>
<path d="M153.707 293.614L160.608 306.74C160.608 306.74 154.961 322.678 157.157 324.241C159.353 325.803 162.176 339.866 156.216 338.304C150.256 336.741 145.551 330.491 145.551 329.553C145.551 328.616 149.001 315.49 147.119 312.365C145.237 309.24 143.982 308.302 143.982 308.302L139.277 316.115L137.708 315.178L145.551 302.052C145.551 302.052 146.492 299.552 150.256 297.989L153.707 293.614Z" fill="#2F2E41"/>
<path opacity="0.1" d="M153.707 293.614L160.608 306.74C160.608 306.74 154.961 322.678 157.157 324.241C159.353 325.803 162.176 339.866 156.216 338.304C150.256 336.741 145.551 330.491 145.551 329.553C145.551 328.616 149.001 315.49 147.119 312.365C145.237 309.24 143.982 308.302 143.982 308.302L139.277 316.115L137.708 315.178L145.551 302.052C145.551 302.052 146.492 299.552 150.256 297.989L153.707 293.614Z" fill="black"/>
<path d="M168.837 219.049C168.837 219.049 171.273 253.612 165.941 262.675V307.677L158.726 308.615C158.726 308.615 146.492 284.239 151.824 260.8C157.157 237.362 143.982 216.423 143.982 216.423L168.837 219.049Z" fill="#FBBEBE"/>
<path d="M167.039 106.263C174.315 106.263 180.214 100.386 180.214 93.137C180.214 85.8879 174.315 80.0114 167.039 80.0114C159.762 80.0114 153.864 85.8879 153.864 93.137C153.864 100.386 159.762 106.263 167.039 106.263Z" fill="#FBBEBE"/>
<path d="M180.37 127.67L167.195 111.106L159.666 106.106L156.529 110.169L147.746 112.669C147.746 112.669 142.099 113.919 136.139 120.794C130.179 127.67 119.513 131.732 119.513 131.732L110.73 130.17C110.73 130.17 100.378 125.482 100.378 124.232C100.378 122.982 91.2808 132.67 93.4767 136.42C95.6726 140.17 100.378 144.858 102.888 147.358C105.397 149.858 106.338 157.046 121.709 154.858C137.08 152.671 142.727 145.17 142.727 145.17C142.727 145.17 145.55 159.546 153.706 162.359C161.862 165.171 188.526 167.046 188.526 167.046L194.173 148.296C194.173 148.296 200.447 140.17 191.977 128.295C191.977 128.295 191.814 121.653 190.904 117.234C190.55 115.515 190.082 114.132 189.467 113.607C187.271 111.731 175.665 108.606 175.665 108.606C175.665 108.606 177.547 114.857 178.488 115.169C179.429 115.482 181.625 126.107 180.37 127.67Z" fill="url(#paint0_linear_3_696)"/>
<path d="M138.178 220.955C153.976 219.861 163.174 222.439 167.277 224.405C168.04 224.749 168.758 225.183 169.416 225.698C169.717 225.952 169.862 226.149 169.862 226.267C169.862 227.205 191.506 229.08 199.349 227.205C207.191 225.33 194.016 185.015 190.565 181.578C187.115 178.14 188.975 165.558 188.975 165.558C188.975 165.558 182.096 164.077 180.213 164.702C178.331 165.327 168.607 163.765 165.156 161.89C161.705 160.014 157.314 161.265 154.491 160.639C153.229 160.361 152.593 160.83 152.276 161.436C151.783 162.346 151.038 163.095 150.13 163.596C143.47 167.418 138.125 193.844 134.1 208.454C129.709 224.392 138.178 220.955 138.178 220.955Z" fill="#2F2E41"/>
<path d="M167.196 304.865L168.451 311.74C168.451 311.74 175.038 321.115 173.156 328.928C173.156 328.928 174.725 339.241 180.371 342.054C186.018 344.866 181.312 351.429 175.979 351.117C170.646 350.804 165.627 351.429 165 349.867C164.373 348.304 160.608 332.991 160.608 332.991V344.241L157.471 344.554V330.491C157.471 330.491 154.962 325.803 158.412 317.99L157.542 305.998C157.542 305.998 166.255 307.99 167.196 304.865Z" fill="#2F2E41"/>
<path d="M166.882 65.7916C174.159 65.7916 180.057 59.9151 180.057 52.6661C180.057 45.417 174.159 39.5405 166.882 39.5405C159.606 39.5405 153.707 45.417 153.707 52.6661C153.707 59.9151 159.606 65.7916 166.882 65.7916Z" fill="#2F2E41"/>
<path d="M177.017 60.6417C178.673 59.3878 180.008 57.7611 180.911 55.8947C181.815 54.0284 182.263 51.9754 182.217 49.9037C182.171 47.832 181.634 45.8004 180.649 43.9753C179.664 42.1501 178.26 40.5832 176.55 39.4027C178.219 40.154 179.712 41.2435 180.934 42.6017C182.156 43.9599 183.081 45.5569 183.649 47.2909C184.217 49.025 184.416 50.858 184.234 52.673C184.051 54.488 183.491 56.2451 182.589 57.8324C181.687 59.4197 180.462 60.8022 178.994 61.8919C177.526 62.9815 175.845 63.7543 174.06 64.1609C172.275 64.5676 170.425 64.5991 168.627 64.2536C166.829 63.9082 165.124 63.1932 163.619 62.1543C165.781 63.1282 168.168 63.5017 170.527 63.2355C172.885 62.9692 175.128 62.073 177.017 60.6417Z" fill="#2F2E41"/>
<path d="M167.196 93.2934C174.646 93.2934 180.685 88.5362 180.685 82.6679C180.685 76.7996 174.646 72.0425 167.196 72.0425C159.746 72.0425 153.707 76.7996 153.707 82.6679C153.707 88.5362 159.746 93.2934 167.196 93.2934Z" fill="#2F2E41"/>
<path opacity="0.1" d="M167.276 224.405C168.039 224.749 168.757 225.183 169.416 225.699C169.582 222.746 170.542 204.885 169.391 205.173L167.276 224.405Z" fill="black"/>
<circle cx="56.4913" cy="75.5" r="42.6646" fill="#061D04"/>
<circle cx="56.4913" cy="75.5" r="42.6646" fill="url(#paint1_linear_3_696)"/>
<circle cx="56.4913" cy="75.5" r="42.6646" stroke="url(#paint2_linear_3_696)" stroke-width="4.32924"/>
<mask id="mask0_3_696" style="mask-type:alpha" maskUnits="userSpaceOnUse" x="62" y="54" width="11" height="17">
<path d="M63.465 70.0943C66.7632 68.7043 65.2319 64.924 62.842 64.924L63.0758 57.5558L65.6795 54.8988L68.0354 56.1474L69.0249 56.76L70.7447 58.4798L72.4174 64.4873L70.3392 69.7448C68.8774 69.7448 65.1095 70.0943 63.465 70.0943Z" fill="#00414E"/>
</mask>
<g mask="url(#mask0_3_696)">
<path d="M63.465 70.0943C66.7632 68.7043 65.2319 64.924 62.842 64.924L63.0758 57.5558L65.6795 54.8988L68.0354 56.1474L69.0249 56.76L70.7447 58.4798L72.4174 64.4873L70.3392 69.7448C68.8774 69.7448 65.1095 70.0943 63.465 70.0943Z" fill="#00414E"/>
<path d="M63.465 70.0943C66.7632 68.7043 65.2319 64.924 62.842 64.924L63.0758 57.5558L65.6795 54.8988L68.0354 56.1474L69.0249 56.76L70.7447 58.4798L72.4174 64.4873L70.3392 69.7448C68.8774 69.7448 65.1095 70.0943 63.465 70.0943Z" fill="#002D22"/>
<g opacity="0.6" filter="url(#filter4_f_3_696)">
<path d="M63.1835 69.8698C62.0229 70.3117 60.8909 70.5069 60.0055 70.527L63.1835 69.8698C66.6754 68.54 70.4264 64.9763 68.5023 57.2256C72.8958 59.4747 71.0417 59.8697 72.5573 67.9312L63.1835 69.8698Z" fill="#000907"/>
</g>
</g>
<mask id="mask1_3_696" style="mask-type:alpha" maskUnits="userSpaceOnUse" x="62" y="80" width="11" height="17">
<path d="M63.465 80.9057C66.7632 82.2957 65.2319 86.076 62.842 86.076L63.0758 93.4442L65.6795 96.1012L68.0354 94.8526L69.0249 94.24L70.7447 92.5202L72.4174 86.5127L70.3392 81.2552C68.8774 81.2552 65.1095 80.9057 63.465 80.9057Z" fill="#00414E"/>
</mask>
<g mask="url(#mask1_3_696)">
<path d="M63.465 80.9057C66.7632 82.2957 65.2319 86.076 62.842 86.076L63.0758 93.4442L65.6795 96.1012L68.0354 94.8526L69.0249 94.24L70.7447 92.5202L72.4174 86.5127L70.3392 81.2552C68.8774 81.2552 65.1095 80.9057 63.465 80.9057Z" fill="#00414E"/>
<path d="M63.465 80.9057C66.7632 82.2957 65.2319 86.076 62.842 86.076L63.0758 93.4442L65.6795 96.1012L68.0354 94.8526L69.0249 94.24L70.7447 92.5202L72.4174 86.5127L70.3392 81.2552C68.8774 81.2552 65.1095 80.9057 63.465 80.9057Z" fill="#002D22"/>
<g opacity="0.6" filter="url(#filter5_f_3_696)">
<path d="M63.1835 81.1302C62.0229 80.6883 60.8909 80.4931 60.0055 80.473L63.1835 81.1302C66.6754 82.46 70.4264 86.0237 68.5023 93.7744C72.8958 91.5253 71.0417 91.1303 72.5573 83.0688L63.1835 81.1302Z" fill="#000907"/>
</g>
</g>
<path fill-rule="evenodd" clip-rule="evenodd" d="M40.6645 55.2983C40.6645 54.7239 41.1301 54.2584 41.7044 54.2584L62.8416 54.2584C65.789 54.2584 68.1783 56.6477 68.1783 59.5951C68.1783 62.5425 65.789 64.9318 62.8416 64.9318L43.9098 64.9318C43.3329 64.9318 42.8652 64.4641 42.8652 63.8873C42.8652 63.3104 43.3329 62.8427 43.9098 62.8427L49.5688 62.8427C50.1582 62.8427 50.6361 62.3649 50.6361 61.7754C50.6361 61.1859 50.1582 60.708 49.5688 60.708L45.7645 60.708C45.1472 60.708 44.6469 60.2077 44.6469 59.5904C44.6469 58.9732 45.1472 58.4728 45.7645 58.4728L52.1492 58.4728C52.7387 58.4728 53.2166 57.995 53.2166 57.4055C53.2166 56.816 52.7387 56.3382 52.1492 56.3382L41.7044 56.3382C41.1301 56.3382 40.6645 55.8726 40.6645 55.2983Z" fill="url(#paint3_linear_3_696)"/>
<path fill-rule="evenodd" clip-rule="evenodd" d="M40.6645 95.6998C40.6645 96.2742 41.1301 96.7397 41.7044 96.7397L62.8416 96.7397C65.789 96.7397 68.1783 94.3504 68.1783 91.403C68.1783 88.4556 65.789 86.0663 62.8416 86.0663L43.9098 86.0663C43.3329 86.0663 42.8652 86.534 42.8652 87.1108C42.8652 87.6877 43.3329 88.1554 43.9098 88.1554L49.5688 88.1554C50.1582 88.1554 50.6361 88.6332 50.6361 89.2227C50.6361 89.8122 50.1582 90.2901 49.5688 90.2901L45.7645 90.2901C45.1472 90.2901 44.6469 90.7904 44.6469 91.4077C44.6469 92.0249 45.1472 92.5253 45.7645 92.5253L52.1492 92.5253C52.7387 92.5253 53.2166 93.0031 53.2166 93.5926C53.2166 94.1821 52.7387 94.6599 52.1492 94.6599L41.7044 94.6599C41.1301 94.6599 40.6645 95.1255 40.6645 95.6998Z" fill="url(#paint4_linear_3_696)"/>
<rect x="42.9968" y="58.5467" width="2.1203" height="4.61755" rx="1.06015" transform="rotate(90 42.9968 58.5467)" fill="url(#paint5_linear_3_696)"/>
<rect x="42.9968" y="58.5467" width="2.1203" height="4.61755" rx="1.06015" transform="rotate(90 42.9968 58.5467)" fill="url(#paint6_linear_3_696)"/>
<rect width="2.1203" height="4.61755" rx="1.06015" transform="matrix(4.37114e-08 -1 -1 -4.37114e-08 42.9968 92.4716)" fill="url(#paint7_linear_3_696)"/>
<mask id="mask2_3_696" style="mask-type:alpha" maskUnits="userSpaceOnUse" x="42" y="54" width="33" height="43">
<path fill-rule="evenodd" clip-rule="evenodd" d="M70.3412 62.3184C70.1281 66.7388 67.1278 69.5474 63.0032 70.1626L48.1995 70.1626C45.2521 70.1626 42.8628 72.5519 42.8628 75.4993C42.8628 78.4467 45.2521 80.836 48.1995 80.836L63.0047 80.836C67.1275 81.4522 70.1263 84.2605 70.3392 88.6797C70.1557 95.0811 64.8275 96.3456 63.373 96.6907C63.334 96.7 63.2978 96.7086 63.2645 96.7166C67.4179 96.195 73.3849 92.9265 74.4459 85.9625C75.2528 80.6661 72.6798 77.043 71.3313 75.5001C72.6793 73.9585 75.2551 70.3345 74.4478 65.0355C73.3868 58.0716 67.4199 54.8031 63.2665 54.2815L63.3749 54.3073C64.8294 54.6525 70.1576 55.917 70.3412 62.3184Z" fill="#C4C4C4"/>
</mask>
<g mask="url(#mask2_3_696)">
<path fill-rule="evenodd" clip-rule="evenodd" d="M70.3412 62.3184C70.1281 66.7388 67.1278 69.5474 63.0032 70.1626L48.1995 70.1626C45.2521 70.1626 42.8628 72.5519 42.8628 75.4993C42.8628 78.4467 45.2521 80.836 48.1995 80.836L63.0047 80.836C67.1275 81.4522 70.1263 84.2605 70.3392 88.6797C70.1557 95.0811 64.8275 96.3456 63.373 96.6907C63.334 96.7 63.2978 96.7086 63.2645 96.7166C67.4179 96.195 73.3849 92.9265 74.4459 85.9625C75.2528 80.6661 72.6798 77.043 71.3313 75.5001C72.6793 73.9585 75.2551 70.3345 74.4478 65.0355C73.3868 58.0716 67.4199 54.8031 63.2665 54.2815L63.3749 54.3073C64.8294 54.6525 70.1576 55.917 70.3412 62.3184Z" fill="url(#paint8_linear_3_696)"/>
<g opacity="0.9" filter="url(#filter6_f_3_696)">
<path d="M72.7709 59.9663C75.0603 65.0128 72.1985 71.9296 65.443 75.4928C66.8484 75.517 70.7394 75.4928 72.8273 75.4928C75.3667 72.9534 77.3981 62.8927 72.7709 59.9663Z" fill="url(#paint9_linear_3_696)"/>
<path d="M72.7709 91.0349C75.0603 85.9884 72.1985 79.0555 65.443 75.4923C66.8483 75.4681 70.7394 75.4923 72.8273 75.4923C75.3667 78.0317 77.3982 88.1086 72.7709 91.0349Z" fill="url(#paint10_linear_3_696)"/>
</g>
<path d="M48.1835 80.8283C46.7703 80.8283 45.4149 80.2669 44.4156 79.2676C43.4163 78.2683 42.8548 76.9129 42.8548 75.4997C42.8548 74.0864 43.4163 72.7311 44.4156 71.7317C45.4149 70.7324 46.7703 70.171 48.1835 70.171L59.4615 70.171L59.4615 80.8283L48.1835 80.8283Z" fill="url(#paint11_linear_3_696)"/>
</g>
<path d="M86.1357 111.328C86.4949 110.557 85.3223 109.255 83.5166 108.42C81.7109 107.585 79.9559 107.533 79.5967 108.304C79.2374 109.075 80.41 110.377 82.2157 111.212C84.0214 112.047 85.7764 112.099 86.1357 111.328Z" fill="#FBBEBE"/>
</g>
<defs>
<filter id="filter0_f_3_696" x="15.9913" y="31" width="90.5697" height="90.2362" filterUnits="userSpaceOnUse" color-interpolation-filters="sRGB">
<feFlood flood-opacity="0" result="BackgroundImageFix"/>
<feBlend mode="normal" in="SourceGraphic" in2="BackgroundImageFix" result="shape"/>
<feGaussianBlur stdDeviation="0.5" result="effect1_foregroundBlur_3_696"/>
</filter>
<filter id="filter1_f_3_696" x="302.688" y="1.91676" width="94.3555" height="264.193" filterUnits="userSpaceOnUse" color-interpolation-filters="sRGB">
<feFlood flood-opacity="0" result="BackgroundImageFix"/>
<feBlend mode="normal" in="SourceGraphic" in2="BackgroundImageFix" result="shape"/>
<feGaussianBlur stdDeviation="0.5" result="effect1_foregroundBlur_3_696"/>
</filter>
<filter id="filter2_f_3_696" x="434.021" y="125.952" width="66.8128" height="48.6618" filterUnits="userSpaceOnUse" color-interpolation-filters="sRGB">
<feFlood flood-opacity="0" result="BackgroundImageFix"/>
<feBlend mode="normal" in="SourceGraphic" in2="BackgroundImageFix" result="shape"/>
<feGaussianBlur stdDeviation="0.5" result="effect1_foregroundBlur_3_696"/>
</filter>
<filter id="filter3_f_3_696" x="95.0469" y="39.7921" width="119.443" height="313.318" filterUnits="userSpaceOnUse" color-interpolation-filters="sRGB">
<feFlood flood-opacity="0" result="BackgroundImageFix"/>
<feBlend mode="normal" in="SourceGraphic" in2="BackgroundImageFix" result="shape"/>
<feGaussianBlur stdDeviation="0.5" result="effect1_foregroundBlur_3_696"/>
</filter>
<filter id="filter4_f_3_696" x="59.0542" y="56.2743" width="14.4543" height="15.204" filterUnits="userSpaceOnUse" color-interpolation-filters="sRGB">
<feFlood flood-opacity="0" result="BackgroundImageFix"/>
<feBlend mode="normal" in="SourceGraphic" in2="BackgroundImageFix" result="shape"/>
<feGaussianBlur stdDeviation="0.475629" result="effect1_foregroundBlur_3_696"/>
</filter>
<filter id="filter5_f_3_696" x="59.0542" y="79.5217" width="14.4543" height="15.204" filterUnits="userSpaceOnUse" color-interpolation-filters="sRGB">
<feFlood flood-opacity="0" result="BackgroundImageFix"/>
<feBlend mode="normal" in="SourceGraphic" in2="BackgroundImageFix" result="shape"/>
<feGaussianBlur stdDeviation="0.475629" result="effect1_foregroundBlur_3_696"/>
</filter>
<filter id="filter6_f_3_696" x="65.2265" y="59.7499" width="10.5258" height="31.5015" filterUnits="userSpaceOnUse" color-interpolation-filters="sRGB">
<feFlood flood-opacity="0" result="BackgroundImageFix"/>
<feBlend mode="normal" in="SourceGraphic" in2="BackgroundImageFix" result="shape"/>
<feGaussianBlur stdDeviation="0.108231" result="effect1_foregroundBlur_3_696"/>
</filter>
<linearGradient id="paint0_linear_3_696" x1="140.413" y1="126.085" x2="152.35" y2="177.483" gradientUnits="userSpaceOnUse">
<stop stop-color="#2DEFC0"/>
<stop offset="1" stop-color="#26D8E3"/>
</linearGradient>
<linearGradient id="paint1_linear_3_696" x1="96.9913" y1="76.7891" x2="15.9913" y2="76.7891" gradientUnits="userSpaceOnUse">
<stop stop-color="#061D04"/>
<stop offset="0.497938" stop-color="#061D04"/>
<stop offset="1" stop-color="#4C3700"/>
</linearGradient>
<linearGradient id="paint2_linear_3_696" x1="56.4913" y1="75.5" x2="12.413" y2="75.5" gradientUnits="userSpaceOnUse">
<stop stop-color="#0EFFC5"/>
<stop offset="0.510478" stop-color="#000020"/>
<stop offset="1" stop-color="#FBC108"/>
</linearGradient>
<linearGradient id="paint3_linear_3_696" x1="64.576" y1="61.9621" x2="29.5233" y2="60.1159" gradientUnits="userSpaceOnUse">
<stop stop-color="#002D22"/>
<stop offset="0.292717" stop-color="#00AA81"/>
<stop offset="1" stop-color="#FBC108"/>
</linearGradient>
<linearGradient id="paint4_linear_3_696" x1="64.576" y1="89.036" x2="29.5233" y2="90.8822" gradientUnits="userSpaceOnUse">
<stop stop-color="#002D22"/>
<stop offset="0.292717" stop-color="#00AA81"/>
<stop offset="1" stop-color="#FBC108"/>
</linearGradient>
<linearGradient id="paint5_linear_3_696" x1="45.1229" y1="32.6535" x2="44.8425" y2="70.2379" gradientUnits="userSpaceOnUse">
<stop stop-color="#0D0002"/>
<stop offset="1" stop-color="#FBC108"/>
</linearGradient>
<linearGradient id="paint6_linear_3_696" x1="44.0334" y1="58.5467" x2="44.3069" y2="63.148" gradientUnits="userSpaceOnUse">
<stop stop-color="#607066"/>
<stop offset="1" stop-color="#FBC108"/>
</linearGradient>
<linearGradient id="paint7_linear_3_696" x1="1.03659" y1="4.84888e-08" x2="1.3101" y2="4.60129" gradientUnits="userSpaceOnUse">
<stop stop-color="#607066"/>
<stop offset="1" stop-color="#FBC108"/>
</linearGradient>
<linearGradient id="paint8_linear_3_696" x1="71.7312" y1="67.5585" x2="42.8628" y2="67.5585" gradientUnits="userSpaceOnUse">
<stop stop-color="#00D19F"/>
<stop offset="0.996336" stop-color="#009974"/>
</linearGradient>
<linearGradient id="paint9_linear_3_696" x1="73.3606" y1="64.3105" x2="73.3606" y2="73.5943" gradientUnits="userSpaceOnUse">
<stop stop-color="#31FDCC" stop-opacity="0"/>
<stop offset="0.353338" stop-color="#0EFFC5"/>
<stop offset="1" stop-color="#0EFFC5" stop-opacity="0"/>
</linearGradient>
<linearGradient id="paint10_linear_3_696" x1="73.3606" y1="86.6863" x2="73.3606" y2="77.3928" gradientUnits="userSpaceOnUse">
<stop stop-color="#31FDCC" stop-opacity="0"/>
<stop offset="0.353338" stop-color="#0EFFC5"/>
<stop offset="1" stop-color="#0EFFC5" stop-opacity="0"/>
</linearGradient>
<linearGradient id="paint11_linear_3_696" x1="59.0846" y1="75.5077" x2="40.8971" y2="75.5077" gradientUnits="userSpaceOnUse">
<stop offset="0.0284994" stop-color="#F50C36" stop-opacity="0"/>
<stop offset="1" stop-color="#FBC108"/>
</linearGradient>
<clipPath id="clip0_3_696">
<rect width="517" height="392" fill="white" transform="translate(0.991333)"/>
</clipPath>
</defs>
</svg>
