<svg width="51" height="50" viewBox="0 0 51 50" fill="none" xmlns="http://www.w3.org/2000/svg">
<path d="M25.9321 0C12.1297 0 0.927734 11.2 0.927734 25C0.927734 38.8 12.1297 50 25.9321 50C39.7345 50 50.9364 38.8 50.9364 25C50.9364 11.2 39.7345 0 25.9321 0ZM25.9321 7.5C30.0828 7.5 33.4334 10.85 33.4334 15C33.4334 19.15 30.0828 22.5 25.9321 22.5C21.7813 22.5 18.4308 19.15 18.4308 15C18.4308 10.85 21.7813 7.5 25.9321 7.5ZM25.9321 43C22.9612 43 20.0365 42.2649 17.4188 40.8603C14.8011 39.4557 12.5717 37.4253 10.9295 34.95C11.0045 29.975 20.9312 27.25 25.9321 27.25C30.9079 27.25 40.8597 29.975 40.9347 34.95C39.2924 37.4253 37.0631 39.4557 34.4453 40.8603C31.8276 42.2649 28.9029 43 25.9321 43Z" fill="url(#paint0_linear_108_28)"/>
<path d="M25.9321 0C12.1297 0 0.927734 11.2 0.927734 25C0.927734 38.8 12.1297 50 25.9321 50C39.7345 50 50.9364 38.8 50.9364 25C50.9364 11.2 39.7345 0 25.9321 0ZM25.9321 7.5C30.0828 7.5 33.4334 10.85 33.4334 15C33.4334 19.15 30.0828 22.5 25.9321 22.5C21.7813 22.5 18.4308 19.15 18.4308 15C18.4308 10.85 21.7813 7.5 25.9321 7.5ZM25.9321 43C22.9612 43 20.0365 42.2649 17.4188 40.8603C14.8011 39.4557 12.5717 37.4253 10.9295 34.95C11.0045 29.975 20.9312 27.25 25.9321 27.25C30.9079 27.25 40.8597 29.975 40.9347 34.95C39.2924 37.4253 37.0631 39.4557 34.4453 40.8603C31.8276 42.2649 28.9029 43 25.9321 43Z" fill="url(#paint1_linear_108_28)"/>
<defs>
<linearGradient id="paint0_linear_108_28" x1="10.0202" y1="-1.02445e-06" x2="48.2778" y2="38.2642" gradientUnits="userSpaceOnUse">
<stop stop-color="#097070"/>
<stop offset="1" stop-color="#011C1C"/>
</linearGradient>
<linearGradient id="paint1_linear_108_28" x1="0.927734" y1="25.5556" x2="48.1581" y2="25.5556" gradientUnits="userSpaceOnUse">
<stop stop-color="#41C8C8"/>
<stop offset="1" stop-color="#008181"/>
</linearGradient>
</defs>
</svg>
