<svg width="50" height="50" viewBox="0 0 50 50" fill="none" xmlns="http://www.w3.org/2000/svg">
<path fill-rule="evenodd" clip-rule="evenodd" d="M0 25C0 11.2 11.2 0 25 0C38.8 0 50 11.2 50 25C50 38.8 38.8 50 25 50C11.2 50 0 38.8 0 25ZM26.0339 9.31571C25.7592 9.04103 25.3867 8.88672 24.9982 8.88672C24.6098 8.88672 24.2372 9.04103 23.9625 9.31571C23.6878 9.59039 23.5335 9.96294 23.5335 10.3514V11.8161C23.5335 12.2045 23.6878 12.5771 23.9625 12.8518C24.2372 13.1264 24.6098 13.2808 24.9982 13.2808C25.3867 13.2808 25.7592 13.1264 26.0339 12.8518C26.3086 12.5771 26.4629 12.2045 26.4629 11.8161V10.3514C26.4629 9.96294 26.3086 9.59039 26.0339 9.31571ZM13.2808 11.8164C12.8924 11.8164 12.5199 11.9706 12.2452 12.2452C11.9706 12.5199 11.8164 12.8924 11.8164 13.2808C11.8164 13.6691 11.9706 14.0416 12.2452 14.3163L14.4423 16.5133C14.7185 16.7801 15.0885 16.9277 15.4725 16.9244C15.8565 16.9211 16.2239 16.767 16.4955 16.4955C16.767 16.2239 16.9211 15.8565 16.9244 15.4725C16.9277 15.0885 16.7801 14.7185 16.5133 14.4423L14.3163 12.2452C14.0416 11.9706 13.6691 11.8164 13.2808 11.8164ZM38.18 13.2808C38.18 12.8924 38.0258 12.5199 37.7512 12.2452C37.4765 11.9706 37.104 11.8164 36.7157 11.8164C36.3273 11.8164 35.9548 11.9706 35.6801 12.2452L33.4831 14.4423C33.3432 14.5774 33.2316 14.739 33.1549 14.9177C33.0781 15.0964 33.0377 15.2886 33.036 15.4831C33.0343 15.6775 33.0714 15.8704 33.145 16.0504C33.2187 16.2304 33.3274 16.3939 33.465 16.5315C33.6025 16.669 33.766 16.7777 33.946 16.8514C34.126 16.925 34.3189 16.9621 34.5134 16.9604C34.7078 16.9587 34.9 16.9183 35.0787 16.8416C35.2574 16.7648 35.4191 16.6532 35.5542 16.5133L37.7512 14.3163C38.0258 14.0416 38.18 13.6691 38.18 13.2808ZM9.31571 23.9625C9.04103 24.2372 8.88672 24.6098 8.88672 24.9982C8.88672 25.3867 9.04103 25.7592 9.31571 26.0339C9.59039 26.3086 9.96294 26.4629 10.3514 26.4629H11.8161C12.2045 26.4629 12.5771 26.3086 12.8518 26.0339C13.1264 25.7592 13.2808 25.3867 13.2808 24.9982C13.2808 24.6098 13.1264 24.2372 12.8518 23.9625C12.5771 23.6878 12.2045 23.5335 11.8161 23.5335H10.3514C9.96294 23.5335 9.59039 23.6878 9.31571 23.9625ZM37.1447 23.9625C36.87 24.2372 36.7157 24.6098 36.7157 24.9982C36.7157 25.3867 36.87 25.7592 37.1447 26.0339C37.4193 26.3086 37.7919 26.4629 38.1803 26.4629H39.645C40.0335 26.4629 40.406 26.3086 40.6807 26.0339C40.9554 25.7592 41.1097 25.3867 41.1097 24.9982C41.1097 24.6098 40.9554 24.2372 40.6807 23.9625C40.406 23.6878 40.0335 23.5335 39.645 23.5335H38.1803C37.7919 23.5335 37.4193 23.6878 37.1447 23.9625ZM16.9422 34.5186C16.9422 34.1303 16.7879 33.7578 16.5133 33.4831C16.2386 33.2085 15.8662 33.0543 15.4778 33.0543C15.0894 33.0543 14.7169 33.2085 14.4423 33.4831L12.2452 35.6801C11.9784 35.9564 11.8308 36.3264 11.8341 36.7104C11.8375 37.0944 11.9915 37.4618 12.2631 37.7333C12.5346 38.0049 12.902 38.159 13.286 38.1623C13.6701 38.1656 14.04 38.018 14.3163 37.7512L16.5133 35.5542C16.7879 35.2795 16.9422 34.907 16.9422 34.5186ZM34.5186 33.0543C34.1303 33.0543 33.7578 33.2085 33.4831 33.4831C33.2085 33.7578 33.0543 34.1303 33.0543 34.5186C33.0543 34.907 33.2085 35.2795 33.4831 35.5542L35.6801 37.7512C35.9564 38.018 36.3264 38.1656 36.7104 38.1623C37.0944 38.159 37.4618 38.0049 37.7333 37.7333C38.0049 37.4618 38.159 37.0944 38.1623 36.7104C38.1656 36.3264 38.018 35.9564 37.7512 35.6801L35.5542 33.4831C35.2795 33.2085 34.907 33.0543 34.5186 33.0543ZM26.0339 37.1447C25.7592 36.87 25.3867 36.7157 24.9982 36.7157C24.6098 36.7157 24.2372 36.87 23.9625 37.1447C23.6878 37.4193 23.5335 37.7919 23.5335 38.1803V39.645C23.5335 40.0335 23.6878 40.406 23.9625 40.6807C24.2372 40.9554 24.6098 41.1097 24.9982 41.1097C25.3867 41.1097 25.7592 40.9554 26.0339 40.6807C26.3086 40.406 26.4629 40.0335 26.4629 39.645V38.1803C26.4629 37.7919 26.3086 37.4193 26.0339 37.1447ZM19.8198 19.8198C21.1932 18.4464 23.0559 17.6748 24.9982 17.6748C26.9405 17.6748 28.8032 18.4464 30.1766 19.8198C31.55 21.1932 32.3216 23.0559 32.3216 24.9982C32.3216 26.9405 31.55 28.8032 30.1766 30.1766C28.8032 31.55 26.9405 32.3216 24.9982 32.3216C23.0559 32.3216 21.1932 31.55 19.8198 30.1766C18.4464 28.8032 17.6748 26.9405 17.6748 24.9982C17.6748 23.0559 18.4464 21.1932 19.8198 19.8198Z" fill="url(#paint0_linear_11_1962)"/>
<defs>
<linearGradient id="paint0_linear_11_1962" x1="0" y1="25.5556" x2="47.2222" y2="25.5556" gradientUnits="userSpaceOnUse">
<stop stop-color="#6FDFDF"/>
<stop offset="1" stop-color="#00A5A5"/>
</linearGradient>
</defs>
</svg>
