<svg width="51" height="50" viewBox="0 0 51 50" fill="none" xmlns="http://www.w3.org/2000/svg">
<g clip-path="url(#clip0_1_501)">
<path fill-rule="evenodd" clip-rule="evenodd" d="M14.1997 0C6.46772 0 0.199707 6.26801 0.199707 14V36C0.199707 43.732 6.46772 50 14.1997 50H36.1997C43.9317 50 50.1997 43.732 50.1997 36V14C50.1997 6.26801 43.9317 0 36.1997 0H14.1997ZM38.2802 15.226L33.8791 35.9812C33.5468 37.4458 32.6812 37.8104 31.451 37.1208L24.7447 32.1791L21.5093 35.2916C21.151 35.6499 20.852 35.9489 20.1614 35.9489L20.6437 29.1197L33.0718 17.8895C33.6125 17.4083 32.9541 17.1406 32.2323 17.6229L16.8676 27.2979L10.2531 25.2271C8.81454 24.7781 8.78849 23.7885 10.5531 23.0979L36.425 13.1301C37.6229 12.6813 38.6708 13.3968 38.2802 15.2271V15.226Z" fill="#1AC7C7"/>
</g>
<defs>
<clipPath id="clip0_1_501">
<rect width="50" height="50" fill="white" transform="translate(0.199707)"/>
</clipPath>
</defs>
</svg>
