<svg width="51" height="32" viewBox="0 0 51 32" fill="none" xmlns="http://www.w3.org/2000/svg">
<path d="M48.2971 13H3.56708C2.10941 13 0.927734 14.276 0.927734 15.85V16.15C0.927734 17.724 2.10941 19 3.56708 19H48.2971C49.7547 19 50.9364 17.724 50.9364 16.15V15.85C50.9364 14.276 49.7547 13 48.2971 13Z" fill="url(#paint0_linear_1_478)"/>
<path d="M48.2971 13H3.56708C2.10941 13 0.927734 14.276 0.927734 15.85V16.15C0.927734 17.724 2.10941 19 3.56708 19H48.2971C49.7547 19 50.9364 17.724 50.9364 16.15V15.85C50.9364 14.276 49.7547 13 48.2971 13Z" fill="url(#paint1_linear_1_478)"/>
<path d="M48.2971 26H3.56708C2.10941 26 0.927734 27.276 0.927734 28.85V29.15C0.927734 30.724 2.10941 32 3.56708 32H48.2971C49.7547 32 50.9364 30.724 50.9364 29.15V28.85C50.9364 27.276 49.7547 26 48.2971 26Z" fill="url(#paint2_linear_1_478)"/>
<path d="M48.2971 26H3.56708C2.10941 26 0.927734 27.276 0.927734 28.85V29.15C0.927734 30.724 2.10941 32 3.56708 32H48.2971C49.7547 32 50.9364 30.724 50.9364 29.15V28.85C50.9364 27.276 49.7547 26 48.2971 26Z" fill="url(#paint3_linear_1_478)"/>
<path d="M48.2971 0H3.56708C2.10941 0 0.927734 1.27599 0.927734 2.85V3.15C0.927734 4.72401 2.10941 6 3.56708 6H48.2971C49.7547 6 50.9364 4.72401 50.9364 3.15V2.85C50.9364 1.27599 49.7547 0 48.2971 0Z" fill="url(#paint4_linear_1_478)"/>
<path d="M48.2971 0H3.56708C2.10941 0 0.927734 1.27599 0.927734 2.85V3.15C0.927734 4.72401 2.10941 6 3.56708 6H48.2971C49.7547 6 50.9364 4.72401 50.9364 3.15V2.85C50.9364 1.27599 49.7547 0 48.2971 0Z" fill="url(#paint5_linear_1_478)"/>
<defs>
<linearGradient id="paint0_linear_1_478" x1="10.0202" y1="13" x2="11.1062" y2="22.0515" gradientUnits="userSpaceOnUse">
<stop stop-color="#097070"/>
<stop offset="1" stop-color="#011C1C"/>
</linearGradient>
<linearGradient id="paint1_linear_1_478" x1="0.927734" y1="16.0667" x2="48.1581" y2="16.0667" gradientUnits="userSpaceOnUse">
<stop stop-color="#41C8C8"/>
<stop offset="1" stop-color="#008181"/>
</linearGradient>
<linearGradient id="paint2_linear_1_478" x1="10.0202" y1="26" x2="11.1062" y2="35.0515" gradientUnits="userSpaceOnUse">
<stop stop-color="#097070"/>
<stop offset="1" stop-color="#011C1C"/>
</linearGradient>
<linearGradient id="paint3_linear_1_478" x1="0.927734" y1="29.0667" x2="48.1581" y2="29.0667" gradientUnits="userSpaceOnUse">
<stop stop-color="#41C8C8"/>
<stop offset="1" stop-color="#008181"/>
</linearGradient>
<linearGradient id="paint4_linear_1_478" x1="10.0202" y1="-1.22935e-07" x2="11.1062" y2="9.05152" gradientUnits="userSpaceOnUse">
<stop stop-color="#097070"/>
<stop offset="1" stop-color="#011C1C"/>
</linearGradient>
<linearGradient id="paint5_linear_1_478" x1="0.927734" y1="3.06667" x2="48.1581" y2="3.06667" gradientUnits="userSpaceOnUse">
<stop stop-color="#41C8C8"/>
<stop offset="1" stop-color="#008181"/>
</linearGradient>
</defs>
</svg>
