<svg width="51" height="50" viewBox="0 0 51 50" fill="none" xmlns="http://www.w3.org/2000/svg">
<g clip-path="url(#clip0_1_503)">
<path fill-rule="evenodd" clip-rule="evenodd" d="M14.1997 0C6.46772 0 0.199707 6.26807 0.199707 14V36C0.199707 43.7319 6.46772 50 14.1997 50H36.1997C43.9317 50 50.1997 43.7319 50.1997 36V14C50.1997 6.26807 43.9317 0 36.1997 0H14.1997ZM11.3024 24.7009C11.3134 16.5872 17.8391 9.99097 25.8664 9.99097C29.753 9.99097 33.3968 11.52 36.1572 14.3103C38.9066 17.0894 40.5849 20.7834 40.5849 24.7122C40.5849 32.8259 33.8826 39.4219 25.8664 39.4219H25.8553C23.2384 39.4219 20.6768 38.7075 18.4464 37.3684L17.9164 37.0447L12.4066 38.5066L13.8751 33.0825L13.5328 32.5247C12.0753 30.1919 11.3024 27.48 11.3024 24.7009ZM31.4755 33.116C32.3147 32.9934 34.0593 32.0559 34.4237 31.0178C34.788 29.991 34.788 29.0981 34.6887 28.8862C34.5991 28.7412 34.3933 28.6404 34.0831 28.4885C34.0109 28.4531 33.9329 28.415 33.8495 28.3728C33.4078 28.1497 31.2547 27.0781 30.8572 26.9331C30.4597 26.7878 30.1616 26.7097 29.8745 27.1562C29.5874 27.5916 28.7482 28.5959 28.4943 28.8862C28.2403 29.1875 27.9864 29.2209 27.5447 28.9978C24.972 27.6919 23.2826 26.6763 21.5932 23.741C21.3421 23.3076 21.5054 23.1353 21.8439 22.7783C22.1157 22.4917 22.5004 22.0859 22.8741 21.3303C23.0287 21.0403 22.9514 20.7834 22.841 20.5603C22.7706 20.418 22.3903 19.4812 22.0295 18.5925C21.8245 18.0876 21.6258 17.5984 21.4939 17.2791C21.1799 16.5156 20.8574 16.5186 20.6034 16.5208C20.5716 16.521 20.5408 16.5212 20.5112 16.52C20.2572 16.509 19.9591 16.509 19.672 16.509C19.3739 16.509 18.8991 16.6206 18.5016 17.0669C18.4775 17.0933 18.451 17.1216 18.4224 17.1523C17.9643 17.6433 16.9668 18.7129 16.9668 20.7612C16.9668 22.9375 18.5347 25.0469 18.7555 25.3372C18.7716 25.3584 18.8018 25.4016 18.8456 25.4646C19.4028 26.2644 22.1667 30.2314 26.2307 32.0112C29.0022 33.2166 30.0843 33.3281 31.4755 33.116ZM17.4857 40.2478C20.0364 41.6541 22.9182 42.4019 25.8553 42.4019C35.5057 42.4019 43.533 34.4666 43.533 24.7122C43.533 19.98 41.5455 15.5378 38.2441 12.1897C34.9316 8.84155 30.537 7 25.8553 7C16.2049 7 8.35431 14.9353 8.3432 24.6897C8.3432 27.8147 9.14929 30.8616 10.6841 33.5403L8.19971 42.7144L17.4857 40.2478Z" fill="#1AC7C7"/>
</g>
<defs>
<clipPath id="clip0_1_503">
<rect width="50" height="50" fill="white" transform="translate(0.199707)"/>
</clipPath>
</defs>
</svg>
